<svg xmlns="http://www.w3.org/2000/svg" xmlns:xlink="http://www.w3.org/1999/xlink" viewBox="0 0 349.73 559.65"><defs><style>.cls-1{fill:none;}.cls-2{clip-path:url(#clip-path);}.cls-3,.cls-4{fill:#231f20;}.cls-3{fill-rule:evenodd;}</style><clipPath id="clip-path" transform="translate(-96.36 -63.24)"><rect class="cls-1" width="542.45" height="702"/></clipPath></defs><g id="Layer_2" data-name="Layer 2"><g id="Layer_1-2" data-name="Layer 1"><g id="Superchief_Gallery_NFT_Logo" data-name="Superchief Gallery NFT Logo"><g class="cls-2"><g class="cls-2"><path class="cls-3" d="M184.84,225.52c1.94.54.29,1.08.58,2.9-2.59.1-1.49-2-.58-2.9" transform="translate(-96.36 -63.24)"/><path class="cls-3" d="M356.39,237.11c.86.49,1.25,1.46,1.15,2.9h-2.31c-.09-1.44.91-1.8,1.16-2.9" transform="translate(-96.36 -63.24)"/><path class="cls-3" d="M359.87,237.69c1.66.08,2.75.73,2.32,2.9-2.15.41-2.56-.92-2.32-2.9" transform="translate(-96.36 -63.24)"/><path class="cls-3" d="M235.26,241.75c1.86,4.21,4,13.38,0,16.81-.58-5.46.92-10.43,0-16.81" transform="translate(-96.36 -63.24)"/><path class="cls-3" d="M307.71,258.56c-2.78,1.68-8.47,1.66-8.7-2.32,2.18,1.5,5.88,1.46,8.7,2.32" transform="translate(-96.36 -63.24)"/><path class="cls-3" d="M304.81,270.15c.1,2.5-5,2-6.38,1.16.75,1.57,2.89,1.76,5.22,1.73-1.8,2.44-6.48.68-8.11-.57-.42-2.15,1-2.49.58-4.64,3.09.83,4.87,3.86,8.69,2.32" transform="translate(-96.36 -63.24)"/><path class="cls-3" d="M325.1,268.41c2.36.15,2.86,2.16,5.79,1.74-.53,2.1-1.71.35-3.48.58.49,1.25,2.55.93,3.48,1.74-2.59,1.62-7.77-1-5.79-4.06" transform="translate(-96.36 -63.24)"/><path class="cls-3" d="M224.25,276.52c-.78,2-9,3.36-8.69-.57a40.28,40.28,0,0,0,8.69.57" transform="translate(-96.36 -63.24)"/><path class="cls-3" d="M215.56,282.9c1.59-.56,1.69,3.24,1.16,2.9-1.95.59-.9-1.8-1.16-2.9" transform="translate(-96.36 -63.24)"/><path class="cls-3" d="M271.78,303.19c1.83-.29.21,2.87,2.31,2.31-.2.76-1,.91-1.16,1.75-1.65-.09-1.06-2.42-1.15-4.06" transform="translate(-96.36 -63.24)"/><path class="cls-3" d="M132.1,309c1.67-.91.9,3.88-.58,3.47-.08-1.42-.09-2.78.58-3.47" transform="translate(-96.36 -63.24)"/><path class="cls-3" d="M276.41,310.72c-.14,1.8-2.05,1.81-3.48,2.32-.38-2.32,1.54-2.33,3.48-2.32" transform="translate(-96.36 -63.24)"/><path class="cls-3" d="M282.21,313h3.47c4.51,8.24,9.18,16.31,15.07,23.18-5.51-1.12-6.83-8.67-12.17-8.11.05-2.6-2-3.75,0-5.22-1.15-1-.74.05-2.32,0,.51-3-3.47-6.09-4.05-9.85" transform="translate(-96.36 -63.24)"/><path class="cls-3" d="M273.51,314.2h1.74c-1.6,2.48,2-.53,2.9,1.15-.95,1.18-1.94,2.32-4.06,2.32-.77-1.22.28-1.71-.58-3.47" transform="translate(-96.36 -63.24)"/><path class="cls-3" d="M341.9,318.25c-1.78,3-9.47.39-6.95-2.9,1.39,1.89,3.31,3.27,6.95,2.9" transform="translate(-96.36 -63.24)"/><path class="cls-3" d="M342.48,320.57c-1.64,2.36-6,.64-8.11,0v-1.74c2.19,2,5.56,1.22,8.11,1.74" transform="translate(-96.36 -63.24)"/><path class="cls-3" d="M184.26,329.84c1.42,1.46-2.74,2.26-2.9,4.06-1.5-1.54,2.1-2.9,2.9-4.06" transform="translate(-96.36 -63.24)"/><path class="cls-3" d="M251.49,329.84c1.29.6.46,3.88-1.16,3.48.41-1.78.41-1.11,0-2.9.47.11.58.58,1.16.58Z" transform="translate(-96.36 -63.24)"/><path class="cls-3" d="M409.13,331c1.64,2.06-2.8,1.91-2.32,4.64-2.72-1.26.37-4.44,2.32-4.64" transform="translate(-96.36 -63.24)"/><path class="cls-3" d="M229.47,347.23c-3.44-4.87-6.91-9.71-13.91-11,7.54-1.55,11.84,5.15,13.91,11" transform="translate(-96.36 -63.24)"/><path class="cls-3" d="M215.56,338c5.61.07,13.48,5.07,11,13.33-3.43-4.69-4.56-11.67-11-13.33" transform="translate(-96.36 -63.24)"/><path class="cls-3" d="M311.76,339.12c1.18,1.72,2.77,3,3.48,5.21-1.82.29-1.31-1.78-3.48-1.16Z" transform="translate(-96.36 -63.24)"/><path class="cls-3" d="M209.18,344.33c1.92-1.12,3.9,2.66,4.06,5.23-2.55-.55-2.21-4-4.06-5.23" transform="translate(-96.36 -63.24)"/><path class="cls-3" d="M219.62,354.76c-1.36-1.77-1.5-3-2.33,0-1.28-2-.11-6.44-1.73-8.11,2.37-.62,4.19,4.3,4.06,8.11" transform="translate(-96.36 -63.24)"/><path class="cls-3" d="M323.94,352.45c1.83-1.83-2.21-.74-1.75-2.9,2.43.67,4.2,2,6.38,2.9-1.81,2-2.86-1.58-4.63,0" transform="translate(-96.36 -63.24)"/><path class="cls-3" d="M197.59,378c1.36.84-.37,3.45-.58,4.63-1.63-1.1.79-3,.58-4.63" transform="translate(-96.36 -63.24)"/><path class="cls-3" d="M199.33,378c1.28.95-.07,4.14-.58,5.21-2.4-.15.87-3.43.58-5.21" transform="translate(-96.36 -63.24)"/><path class="cls-3" d="M238.16,380.27c1.6-.25.54,2.16,1.74,2.31.26,2.06-.24,9.51-.58,4.06-.32-2.19-1.4-3.62-1.16-6.37" transform="translate(-96.36 -63.24)"/><path class="cls-3" d="M228.89,393.6c-1.7.95-2.19-1.09-4.64,0,.71-1.47,4.62-2.56,4.64,0" transform="translate(-96.36 -63.24)"/><path class="cls-3" d="M348.86,408.67c1.79-.06,2.76.7,4.05,1.15.69,3.39-1.45,4-1.16,7-2.93.47-2.92.3-4.63-1.16.83-2.07,1-4.8,1.74-6.95" transform="translate(-96.36 -63.24)"/><path class="cls-3" d="M285.68,419.1c-2.94-1.89-6.85-2.81-11.59-2.9,3.29-2.27,10.73-.87,11.59,2.9" transform="translate(-96.36 -63.24)"/><path class="cls-3" d="M349.44,426.63c2.21-.27,3.7.17,4.63,1.16,0,2.14-.26,4-2.32,4.06-2-.49-2.35-2.67-2.31-5.22" transform="translate(-96.36 -63.24)"/><path class="cls-3" d="M286.84,468.36c2.21-.46.74,2.74,1.16,4.06-.86-.88-.94-2.55-1.16-4.06" transform="translate(-96.36 -63.24)"/><path class="cls-3" d="M230.66,121.78c1.55,3.66,1.47,9,5.21,10.43,5.14-1,11.62-1.78,16.2.58-.18-3.88-1.43-6.69-2.32-9.85,1.57-1.91,1.83,2.38,3.48,2.32-.8-3.64-2.42-6.47-2.32-11,1.09.06.4,1.91,1.74,1.73a42.4,42.4,0,0,1-.58-9.27c-1.34.59,0,3.88-2.32,3.48,1.23-6.71-2-11.64-.58-18a9.47,9.47,0,0,1,2.32,6.38c1.91-7.41-3.62-17.18-4.64-25.51,2.17,2.48,3.18,6.11,4.64,9.28C252.7,77.09,248.74,72,248,66.72c2.52,1.34,4.06,3.67,7,4.64,4.29-1.3,7.41-6.45,13-6.41,0,1.49-2.26,2.6-2.31,4.09,4.1-.34,7.54-2.24,10.73-3.48-.45,2.64-3.13,3-4.05,5.22,4.24-.57,3.42,3,7.8,2.31-2.92,2.49-8.92,6.56-13.63,5.56.53-1,2-3.72,2.89-4.39-3.24-1.47-3.19-2.35-7.8-1.74.18,1.94,2.77.58,3.17,2.32-.9,2.7-4.55.75-6.65.89-1.52,1.36.24,3.47.58,4.9,0,2.71-1.32-.67-2.32-.58.75,2.92.52,6.82,1.74,9.28-.14,1-1,1.31-2.32,1.15.51,2.39,4.67,4.46,2.93,7.24,3.67,2,8.9-1.45,12.44,1.43-1.15,1.16-2.65,3.75-5.21,3.5,1.17,1.74,4.91,1.78,6.69,2.9-4.18,3.15-11.08.55-13.92-1.43-1.37,5.34-2.65,18.39,1.74,23.45-2,3.72,9.26-2.1,13.4-2.07,0,1.93-5.87,4.19-6.44,5.55,3.67,1.08,9.95-4.08,12.13,4.37-1-3.75-4.34-.5-8.65-.58,0,2,7.07,1.75,3.51,2,5.79-.43,4.18-.33,9.47-2.32-3.61-4.32-2.12-17.52-2.31-23.76-.6-1.85-2.3,3-2.9,1.16.37-4.07,3.15-5.74,2.9-10.43a10.92,10.92,0,0,0-2.32,4c-2-3.48,1.83-7.62,1.74-12.17s-3.56-9.19-1.16-13.91c.86.5,1.25,1.46,1.16,2.9-.71-10.75,4.35-15.74,14.49-15.65,2.82.87-2.75,2.4-2.9,4.06,4.42-.24,8.18-1.17,11,1.16.5,2.2,1.57,3.84,1.16,7,.3,1.18,1.41-1.61,2.32-1.74-.15,4.12-2.08,11.45-3.48,16.23-1.3-.24,0-3.07-1.16-3.47a12.71,12.71,0,0,0-2.59,5.21c3.16,2.84,5,7,7,11-1.61.63-2.87-4.06-5.21-4.63,3.73,10.75,4.35,24.62,8.11,35.35,1.83.28,1.16-1,3.17-.58-.72-3.2-2-5.75-4.05-4.64-.08-8.58-.42-18.61,1.74-26.65-.19-1.23-2,.6-1.74,1.73-.92-6.16,1.48-10.46,1.15-18-1.4.33-1.28,2.18-1.74,3.47-2.44-4.42,1.38-12,0-16.8,2-4.74,6.87-7.56,12.18-9,2.41,1.45,9.21,1.18,8.72,5.53-2.82-.24-3.71-2.4-6.68-1.16A21.76,21.76,0,0,1,328,77.15c-.82,3.44-4.1,6.18-3.51,11-3.11-1.62-1.41-7.25,0-9.28-1.38-3.77-2.52-3.7-5.76-4.63-1.71.5,2.23.86,1.47,2.31-3.95-.46-6.38.59-7,3.48,1,1,3.42-1.57,5.52-1.43-.3,3-3.33,3.23-4.64,5.22-.35,3.44-.48,4.89.28,7.22,1.54.19.35-3.24,2.63-2.31-1.34,8.71-2,18.1-2.91,27.23a2.54,2.54,0,0,0,1.17-2.31c1.81,2.78,1.83,9.31-1.44,10.43-.08,3.88,4,3.58,2.87,6.65,3.31.41,3.78-1.13,4.33-3.48,1.49.79.12,3.55,0,4.64,3.12-1.76,2.06-8.42,2.32-11.29a10.38,10.38,0,0,1,2.32,4.64,5.72,5.72,0,0,0,2-2.9c3.13,1.19.28,7.33-.58,9.85.94.66.95,2.28,2,1.16,3.62-7.16-.87-18.87-.58-29.55-2.7,2.33,0-5.88-.58-8.7-4-.76-1.14,1.68-4.63,1.16a4,4,0,0,0,1.74,1.16c-1.08.84-4.91-.48-5.22-2.32,3.33-.16,3.71-4.11,7.22-2.32,1.68-2.89-.59-6.18,0-9.85,2.39,1.35,1.8,3.65,2.63,5.8,1.64-7,2.29-18.82,0-24.34,4.54,3.26,3.38,9.23,4.06,15.64,1-.92,1.26-2.6,1.16-4.63,4,3.54,0,11.21,0,16.22,1.94,1.73,2.8,1.88,4.87,3.48.89-3.54-.88-6.05,0-11,1.26-.1,1.15,2.06,1.47,2.9,2.5-2.92,1-9.84,2.9-13.33,1.33,1,.21,4.42.58,6.37,2.54-.94,1.48-5.47,1.73-8.69,4.41,5.07-1.51,11.52-1.73,17.39,1.18-1.72,2.77-3,3.48-5.22-.42,5.51-5.26,12.4.58,17.39-1.48,1.19-3.38-.91-4.64-1.74-.14,3.73-.94,6.79-.58,11,1.19,2.07.49-2.53,2.32-1.74-2.1,6.58,1.53,13.32,0,19.12-1.25-.48-.94-2.54-1.74-3.47-1.79,2.11,1.3,6.19-1.74,7.53a22.7,22.7,0,0,1,5.8,6.38c1.93-2.92-4-3.79-3.79-7,1.73.14,2-2.14,3.48-.58a119.59,119.59,0,0,0,.58-40.56,1.68,1.68,0,0,1,2,1.15c1.74-2.47-.38-8.67.58-10.43,2.47.05.45,3.7,2,4.64,2.14-.83-.38-5.91,2-5.22,2.43,10-1.71,19.22,1.46,27.82-1.18-.75-.6-2.37-2.31-2.59.51,4.35,2.94,8.23,1.74,12.45-.63-.15-.39-1.16-1.16-1.17-.9,3.17-.95,7.16-1.16,11,2.37,3.49,5.49-2.42,2.59-2.31,4.85-9.13.94-19.28,1.47-31.88,1.24-.27,1.1.83,1.16,1.74,2.59-7.46-2.8-15.81-2-21.44.94,1.18.88,1.6,2.32,2.28-.58-2.51,0-4.46-.86-6.65,5.16-1.67,10.17,3.58,16.85,2.32-.49,1.25-2.54,1.82-3.48,2.63.57,1.55,3.53.72,3.48,2.89-4.51-.32-9.5-.16-11.9-2.59.37,2.91,5.45,2.89,5.83,5.8-1.58.42-2.06-1.15-3.2-1.16,1.35,3.86.05,8.6,3.16,10.71-.71,1.76-2-.63-3.47,0-.33,6.43,4.66,3.09,7.5,4.87-.47,2-1.78,2.15-3.45,2.66.26,2.25,1.53,2.61,3.45,3.2-2.26,2-6.68,1.18-9.27-.57-1.08,1.11,2.07,2,1.15,4.91-1.58.42-1.16-1.16-2.32-1.16-.09,4.73,3.28,6,4.06,9.85-1.58.42-1.16-1.15-2.32-1.16.26,2.44,2.49,2.92,1.74,6.38-1.06-1.07-2.29-2-2.89-3.48-1.07,3.18-1.19,7.31-2.32,10.43,3.38-.86,5.43-3.06,9.85-2.9.35,2.28-1.3,2.56-2.9,2.9,2.23,1.06,4.9.78,7.23,1.73,1.89-3.2,1.66-4.95,1.74-9.84-.59-1.6-1,2.65-2.32.57,1.91-7.64-.43-14.44.58-20.28,1.83.1,1.57,2.29,1.74,4.06,2-2.07.48-5.67,1.16-9.86a2,2,0,0,0-1.47,1.16c-1.78-5.87,1.93-17.85-.85-22.91,1.64-.09,3.3-1.06,4.94-1.16,0,6,10.53,5,13.67,7.84-.33,1.21-2.18,0-3.47.31,1.62,3,7.47,1.79,8.69,5.22-1.4.23-1.26-1.06-2.9-.58,4.74,2.22,7.73,5.29,15.07,4.91.46,2.2-2.74.73-4.06,1.16,2.33,3.66,6.78,4.3,10.67,6.4-9.46,3.27-25.38-1.16-26.66-9-3.34,2.6-3.75-4.36-7.22-5.22.72,2.51.31,4.75,1.73,9.55a7.45,7.45,0,0,1-2.89-4.06c-.81,2,3.32,5.77,2.93,9.27-1.1-.07-.4-1.92-1.74-1.74.19,7,5.64,7.77,11.86,8.7-.49.85-1.45,1.24-2.9,1.15,1.8,1.49,3.91,1.78,5.49,3.48-3.29,3.52-8.56.54-11.31-1.43-.59,1.19,2.72,3.44,4.05,4.64-2.48.15-5.22-2.66-7.8-4.33-1,2.67,2.32,4.38-.58,5.18a5.41,5.41,0,0,0,2.31,3.48c-1.23,1.74-3-1.66-4.36-1.74,1,3.29.22,4.87,2.9,4.63-2.12,2.34-2.49,6.4-3.48,9.86.25,1.29,2.86.23,4.06.57,18.1,19.6,30.21,48.2,25.5,88.68,2.62-.67,5.86-5.72,11-5.8-6.75,10.72-6.73,29.28-9.85,45.21-2.63,13.43-8.46,23.09-3.48,34.77,13.95,12.91,23.71,30,26.66,53.9-6.53-2.17-9.65-7.72-15.07-11,.87,7.55-4.12,13.1-10.43,16.81,1.72,13.38,8.26,24.92,6.37,40-1.16.2-1.81-.12-1.74-1.16-3.82,11.43-5.24,25.28-11,34.78,0-11.16-12.29-17.42-11.6-27.83.25-3.66,4.72-7,1.74-11-1.16,1.73-1.21,4.58-1.74,7-1.64-4.75.67-10.54,1.74-14.49-5,3.29-4.86,11.75-9.27,15.64,2.22-4.89.36-14.25-1.16-19.12-6,5.4-17.26,3.15-22.6,7.53-.31,3.21.33,5.47.57,8.12,9.6,13.44,15.76,33.26,19.13,51-3.75-5.44-8.24-6.85-12.17-11.58,1,6.78,3.65,16.82,5.22,24.91-4.22-1.48-8-7.67-9.86-11,1.54,28.26,4.13,62.72.59,93.31-10.3-29.63-14.07-62.23-21.45-94.47-3.62,11.64-5.78,24.75-8.69,37.09-2.6-4.93-3.84-11.23-6.38-16.23-2.87,9.8,6.09,24.4-.58,30.72-.19,2.7,1.8,3.23,2.32,5.22-4.73,24.64-11.68,47-23.18,64.91.33-37.63-1.17-80.38-9.27-105.48-2.12,15.66-2.93,36.59-9.28,49.83-.51-.35-1-.69-1.16,0-3.83-1-2-6.47-2.32-9.26-1.76-15.32-11.39-26.72-14.48-41.15-2.24,20.39-2.89,40-4.06,60.85-.8,14.18-1.39,30.32-5.8,42.31-.13-9.11-6-18.15-5.21-26.66.4-4.45,5-8.42,1.16-12.75.15-1.78,1.26-2.6,1.73-4.06-2.79-6.25,1.71-11.19-1.73-15.64,4.12-6.66-1.9-13,.58-20.87-.63-1.69-1.21-3.42-2.9-4.06,1.31-2.29,1.32-6.13-1.16-7.53a5.89,5.89,0,0,0-1.74-6.95c-2,6.13-3,13.67-.58,19.12-1.18,2.62-2.62,6.89,0,8.7-1.6,1.83-2.82,6.52,0,8.11-5.88,3.34,0,11.49,0,19.12,0,4.22-2.88,6.85.58,9.27,0,1.94-1.89,2-1.74,4.06,2.16,8-.94,21.49-1.74,31.88-7.85-30.33-4.53-72.56-7-107.22-2.81,2.3-3.31,7.3-4.06,11.59-2,11.13-2.28,25-2.9,38.83-6-10.27-9.19-23.26-13.32-35.35-2.68,29-5.9,51.6-15.07,74.76,0-20.47-5.16-38.89-8.7-53.9-.36-1,.25-5.91,0-8.69-3.75,9-1.29,25.2-5.8,35.93-1.32-18.47-6.8-42.19-8.69-62.59-2.54,2.29-3.5,6.16-5.22,9.27-1.38-10.3.33-13.89,0-26.08-3.87,3.08-6,7.91-8.11,12.75-3.34-6.63-1.93-19.4-1.16-31.87,1.15-18.4,13.11-34.72,5.22-51-1.87-1-4.94,4.48-2.32,2.32-2.19,1.82-3.16,1.43-6.38,3.48,1.87,10.69-1.78,20.46-2.89,31.3-1.95,0-2.4-1.47-3.48-2.32,1.09,2.89,2.81,5,2.32,9.85-1.19,11.81,2.5,27.8,2.9,39.41-6.16-3.12-9.72-8.82-15.07-12.75a82.67,82.67,0,0,0,11.59,19.12c.47,13.66-4.82,24.5-7,33.62-2.67-.24-3.78-4.1-4.63-6.37-5-13.31-12-32.31-13.91-47.53-1-7.75-1.37-14.32,2.32-20.28-1.5-1.46-2.53,4.88-4.64,2.9V400c-2.79,9.85-8,20.1-6.38,32.46-7.68-8.06-4.36-20.05-9.27-30.72,0-.56.71-.45,1.16-.57-3.63-13.46-6.1-28.06-3.48-43.48.63-3.69,3-7.25,3.48-11,.74-5.33-.25-10.53.58-15.65,3.11-19.2,14.77-31.36,23.18-45.78-4.75-16.17-14.55-29.54-16.8-46.36-4.14-1-3.29-5.61-4.06-8.7,4.39,2,11.32,6.45,16.23,9.85,4.41-19.49-.26-47.17,4.05-67.22,4-18.38,12.47-43.36,23.76-54.49,4.69-.24,5.83-.48,8.36,1.43.45-2-3.52-4.58-3.48-8.11,1.55.38,2.2,1.67,3.48,2.32-2.19-4.46-1.7-9.82,0-14.49,1.33,1.37,2.87,6.09,3.24,8.42.86,1.91,1.56-1.93,3.2-1.16-3,3.29-2.1,9.92,2,9.85s2.71-4.45,6.07-5.79v2.32c1.14-3.93,2.63-8.35,2-11.59-1.91-10.56-18.61-18.76-9.58-29.56a2.75,2.75,0,0,0-.58,1.74c3.28-2,4.64-5.8,10.44-5.22.22,2.15-.14,1.07-.25,2.9,2.67-2.16,7.84-.21,8.7,2.9-1.62-.31-3-.85-4.64-1.17,2.17,5.36,2.14,14.89,0,19.71-1.29-4.24-.62-7-.57-12.17-1.39-.23.32,2.64-1.75,1.74,1-4.88-2.41-10.76-6.37-7,1.1.7,2.72-.31,4.06,1.15-1.16.64-2.15.26-4.06,1.16-.1,1.64.5,4-1.16,4.06,7.33,5.59,11.47,16.64,9.85,27.82.59-.38.61-1.33,1.74-1.16.45,4.89-1.52,7.36-4.06,9.28,3.78,1.24,7.75,2.3,11,4-4.11-8.06-4.9-16.82-4.06-29,2.44-.89.09,3,1.74,2.9.6-5-1.48-11.69-1.47-16.81,3.38-4.35,5.55-9.91,8.12-15.07,1.32,2.7-1.37,5.47-1.44,8.7,2-2.41,5-5.68,5.84-9.28,1.55,7.94-5.67,12.11-4.06,22,.5,1.86-1.51,1.2-1.74,2.32.3,5.56.79,9.7-1.16,13.91.53,1.58,1.3-1.77,2.32,0-.4,4.63-3.43,9.92-.27,14.48,1.25.1.26-2,.58-2.89,2.25,3-.92,7.8,3.13,9,8.63-2.59,2.68-11.86,3.72-19.41,1-.2,1.09.46,1.16,1.17.9-7.7-1.91-12.15,0-22.61,2.2-.46.74,2.74,1.16,4.06,2.42-4-.11-9.5.89-15.65,2.44-.9.09,3,1.74,2.9,1.11-2.75.44-7.29,2.32-9.28-.89,5.73.43,12.59.58,20.29.71,1.41,1.6-1.82,2.31-2.32.71,3.23-2,8-4.06,10.43-.29,7.41,2.54,13.53-.58,19.13.87,1.91,1.57-1.94,3.21-1.16,0,4.29-1.65,6.86-2.9,9.85.6,1.85,3.18-3,3.79-1.16-.18,3.89-3,5.14-4.64,7.54,3.74,1.28,6.86,1.41,10.4,2.9,1.79-5.87-4.19-9-4.06-15.07,1.86-.52.8,1.9,2.32,1.74-2-5.46.57-9.78,0-16.81-2.24-.11-1.51,3.63-2.63,4.63-4.75-9.52,4.2-22.37-1.15-33,2,.14,2.06,3.07,3.78,3.48a55.08,55.08,0,0,1-1.16-5.8c3.2,1.36,8.65-2.37,7.53,1.74,2.43-1.39,6.74-.37,8.7.58-.5.86-1.46,1.25-2.9,1.16,6.94,1,9.08,9.21,7,17.39,0,1.36,1.58-.22,1.15-1.16,1.61,3.93-2.9,6.74-2.32,11.59.53,1.56,1.4-1.22,1.74-1.74,1.3,2.48-.83,6.49-2.31,8.11h-6.38c.14,1.6,3.27.21,2.9,2.32-3.54,3.2-3.15-.19-7.77-1.16-3.6,8.65,5.93,13.06,4.36,19.71-1.89-.82-3-4.22-5.25-4.64m-2.94-46c-.94,1.37-.39,2.46-.85,4.32,1.14.18,2-.78,2.63-1.16-1.55,3.61.7,8.7-1.16,11a2.2,2.2,0,0,0-1.47-1.74c-.26,6.25,1.57,9.51,2.9,14.18,2.35-2.77,4.39-1,8.66-1.16,3.87-5.8,2.39-16.69,0-22.87-2,.24-2-.16-2.59-2.59-4.34-.73-4.84.34-8.12,0m64,2.89c-1.48-1.22-3-1.56-4.91-2.32-.28,3.19,2.76,3,2.63,6.07-3.27-1.49,1.36,5.61-1.74,5.8-.26-1.48-1.7-2.67-2.63-3.48-.78,4.45,1.5,5.84,1.16,9.85,4.53-.51,4.7-6.66,7.5-7-.5,1.81-1.57,3.06-2.32,4.63,3.11-.57,3.33-4,5.22-5.79a1.6,1.6,0,0,0,1.16,1.74,14.69,14.69,0,0,0,1.74-11.6c-2.12.54-1.64-2.22-6.34-.84-.29,1.81,2.25,3.25.3,3.78M406.25,93.44c-4.34.71-4.88-4.66-7.75-3.47,1.52,1.68,7.31,6.2,8.42,3.32m-119.19,8.55c-1.61,6.81,3.81,11.13.58,18.2-1.24-1.27-.46-4.56-2.32-5.21-.54,7.5,3,14,3.78,18.23a47.67,47.67,0,0,1-3.78-3.17c0,4,1.19,8.83,4.33,7.53,1.54-.63-1.77-2.17,0-3.2,3.05-.65,7.94-1.29,10.13.58.09-3.83-4.64-7.24-1.16-10.7a75,75,0,0,0,4,7.53c-.41-5.54-2.3-12.16-4.63-13.9-.38-3.49,1.64-8.5.3-11a13.91,13.91,0,0,1-2.62,4.64c.2-6.4,1.41-9.15-2.9-11.83-1.78,1.74-3.78,3.32-5.76,1.43M334.37,109c-1.53.17.43-2.25-1.44-1.74-.57,5.87,4.64,15.93,2.32,18.55.46-.51-.56-1.84-.58-1.74-.48,2.28-.23,5-1.46,5.79,3.92.66,2.61-2.8,6.07-1.15-2.55-8.09,3.92-14.61.57-19.13.17.23-1.13,1.32-1.46,1.16-.35-4.22,2.22-5.51,2.35-9.24-3-.65-5.94-1.41-8.12-2.9-.66,5.31,3.31,5.52,1.75,10.4M167.45,137.42c4.86-6.14,9.13-12.88,15.65-17.38-9.48,1.15-14,10.29-15.65,17.38M183.1,124.1c-11.46,4-13,17.94-17.39,29,1.59-1.6-.85-.55-1.15-1.74a21.22,21.22,0,0,0,1.73-9.28c-5.15.54-4.88,10.12-2.32,13.33-2.88,4.08-1.74,12.17-4.63,16.23,7.6,5.91,1.1,18.37,0,27.24.93,2.37,3.31,6.33,2.32,8.69C159,200.16,151,194.1,151.8,185c.4-4.23,3.66-7.43,4.06-11,.49-4.48-2.23-8.3-2.32-13.91-.06-4.29,3.15-9,1.74-13.33-.75,2.36-1.65,7.61-3.48,7-.16-2.31,2.92-4.39,1.16-6.38-12.26,13.57-7.39,38.22-10.43,61.44-1.53,11.62-6.94,22.19-4.06,33,.23-1.51.3-3.18,1.16-4.06.35,1.21-.71,3.81.58,4.06.85-2.05.38-5.42,1.74-6.95.36,1.75-.74,5,.58,5.79,1.4-3,1.32-7.56,2.32-11,.38,3.49-.76,8.49.58,11,3.29-11.39.23-26.3,4.64-37.09,12,6.59,16.59,20.5,27.23,28.4,1.52-.42,1.78-2.09,3.48-2.32v2.32c2.51-.79,3.68-.27,6.38,0,2.25-1.53-1.66-3.5,2.31-4.06,1.12,1.29-1.49,2.36-.58,5.22,3.1.39,2.26-3.15,4.64-3.48a1.61,1.61,0,0,1,1.17,1.74c-1,1.45-.75.62-2.91.58v2.9c.94,1.69,3-.93,3.48.58.46,2-.86,2.22-.57,4.05a4.41,4.41,0,0,0,1.15-6.37c1.41,1.1,3.44,1.59,4.64,0-.12-4.39.67-11.79,3.48-15.07-2.53,14.31,1.12,32.23-4.64,44-1.31-.23.31-3.39-2.32-2.31-.71.93,1,4.35,2.9,4.64-.45,1.48-.58,3.28-1.74,4.05-4.63-8.25-9.76-18-13.33-25.5,5.64,4,7.51,10.68,11.59,15.65,2.21.46,3.81.9,4.06-1.74-7.42-7.27-13-16.4-22-22-2.11,18.84,1.58,33.93,4.64,49.84-.68,1.83-3,2-4.06,3.47,1.4.24,1.26-1.05,2.9-.57.15,1.54-3.82,1.9-2.32,2.89.41-.8,3.31-2,3.48-1.16-2.73,4.29-7.07-.8-7.54-1.73,3.2,6.27,5.17,13.77,8.7,19.71-.23-1.67-.67-2.72,1.74-4.06-1.37.4-3.68,1.32-3.48-1.16,1.09.05,4.23-.71,2.9-1.16-1-.16-2.89,1.63-3.48,0-.56-2.31,3.24-.24,2.9-2.32-2.38.65-4.43,1-4.64-1.74.75.79,2.84.89,2.9-.58-1-.34-3.41.7-3.48-.58,1.67.12,2.95-.15,3.48-1.16-1.73-.15-3.53,1.62-4.06-.58,1.42,0,4.85-.89,3.48-1.73-1.39,1.18-4.09,1.73-4.63-.59,3,.47,3.8-1.22,6.37-1.16.84,5.91,3.43,9.75,4.05,15.07,1.78-.42,2.12.59,3.48.58,2.51-4.84,4.41-10.27,7-15.07,4.35,5.12,6.87,12.07,10.43,18-1.24-5.9-4.94-9.36-7-14.49,14.91-2.6,1-17.51-2.32-22,7.72-5.43,7.18-13.13,7-20.87-.38.84-1.66,3.68-2.31,2.32,6-8.54-1.49-22.77,1.73-33.61,3.4,9.73,1.21,25.07,5.22,34.19-3,3.54.62,8.52.58,12.75-1.93,0-2-1.88-4.06-1.73-.3,3.49.41,4.51-2.32,5.21a5.4,5.4,0,0,1,4.06,1.74c-.57,1.23-3.64-1.25-4.63.57,1.92.4,4.1.53,4.63,2.32-1.44.76-2.41-1.7-2.9,0,1.69.45,3.34.93,4.06,2.33-1.83.79-3.5-1.44-4.06,0A10.17,10.17,0,0,1,211.5,280c-1.67.81-2.95-1.58-3.48,0,2.54.75,2.59,4,5.22,4.64-.84.32-3-.68-2.9.58,2.28,1.09,5.5,1.32,6.95,1.74,1.13,3.9,1.18,8.87,3.48,11.59-2.3-2.59,2.12-3.71,1.16-4.64-.16.53-2.15,1.95-2.31.58v-2.31c1.69.77,2.84,0,4-1.17h-4c-1.49-3.53-1.92-8.12-2.9-12.17,2.61,1.29,5.83.18,8.11-.58-.63,1.69-2.37,2.27-4.06,2.9-.84.32-3-.68-2.9.58h3.48c1.26-.37,3.6-2.17,4.06,0-1.11,1.79-5.34.45-6.95,1.74,2.66,1.53,5-.14,7.53,1.16-1,1.53-1.78.4-3.48,1.73-6.74.15,2.75,1.49,3.48-.57.76,0,.53,1,1.16,1.16.28-3.48-1.27-9.87-2.9-13.33-1.41,3.06-6.27,1.55-9.27,1.73-.57,2.54,2.1,4.81.58,6.38-2.5-3.59-4.49-11-2.9-13.91-.34,2.27.5,3.36,1.16,4.64,4-.09,5.62-1,9.27-2.32-2.51-17.78-10.63-33-11.59-50.42,4.43,6,1.72,9.71,5.79,16.23-.58,0-.69-.48-1.15-.58.13,2.18,2.18,2.45,2.32,4.63-.66.07-.91-.84-1.17,0,4.41,5.92,3.47,10.88,7,16.81-1,.23-1.49-.86-1.74,0,3,1.46,4.41,7.55,8.11,6.38-5.94-19.94-13.34-38.43-24.34-53.32-1,1.32-.55,4.08-1.73,5.21-.26-4.11.16-7.55,2.89-8.69,1.46,2.6,2.54,5.58,5.22,6.95,2.37-6.66,6-12.23,7-19.12.78-6-1-11.54,0-16.81,1.68-9.35,13.26-15.23,17.38-22,4.8-7.9,4.68-15.32,11.59-20.86-1.54,0-3.31.22-4.05-.58-6,14.62-13.13,31.31-27.25,35.93,10.4-9.15,21-21,23.77-35.93-13.34-.71-12.88,23.23-25.5,24.92,6.87-7,11.31-16.5,16.22-25.5-2.42-.08-5.87,1.83-6.95,1.16-.77-1.45,2.29-1.81.58-2.32-1.21,0-1.65,2.37-2.32,2.9-2.32,1.81-8.28,3.88-10.43,8.12,0-.33.47-.66.58,0-3.47,1.54-5.53,4.51-8.69,6.37,3.94-7.65,10.75-12.42,17.38-17.39-6.51,1.61-10.16,6.07-16.23,8.12-3.91,7.68-8,15.17-12.17,22.6.8-7.32,6.35-13,7-18.55a57.75,57.75,0,0,0-8.7,15.07c1.05-16.53,15.82-22.43,23.77-30.13-24.05,1.85-31.12,20.57-35.94,42.88-.12-21.77,9.52-38.77,26.66-45.2-4.36-1.43-9.58-2-12.75-4.64-5.79,1.93-8.79,6.66-10.43,12.75-5.32,3.57-6.12,11.65-8.69,18-.39-15.45,9.11-24.12,13.9-32.46-1,1.7-7.74,1.83-5.21,3.48m-16.23,4.06c3.19.1,3.43-2.76,4.64-4.64-2.36-1.59-5.67,2.84-4.64,4.64M161.08,127c1.71,1,4.14-1.41,4.63-3.48-2.59.1-4.6.8-4.63,3.48m-7,16.81c5-3.85,9.87-7.92,11.59-15.07-6.15.09-11.85,8.55-11.59,15.07m217.34-13.34c1.75,22.4,16.52,34.87,17.39,56.22-2.46-4.69-3.51-10.79-5.8-15.65,1.21,14-.26,29.69-2.32,42.31-1-3.41-.17-11.33-.58-15.07-.52.52-.9,4-1.74,2.32,8.94-25.35-6.22-46.51-9.85-68.39-2.39-1.94-5.26-.4-7.53-2.89,2.27,6.35,5.82,19,2.32,25.5-.67-11-1.18-18.54-6.38-24.93,2.74,16.93,6.19,36.07,1.74,53.32-.59-7,.55-14,.58-20.28,0-9.78-2.64-26.6-7.54-31.3-2.35,13,1.06,30.47-2.32,41.16-.35-4.86-.07-10.37-1.73-13.92-2.15,11.89-.18,23.85.58,35.94,1.48-.31,2-.77,2.89.58,1.92,14.26,1.87,32.85,1.17,46.36.48.59,3-1.64,3.47,1.16-1.21,1.26-1.66-.29-3.47,0,.69,1.73.15,2-.59,3.48,4.06-.08,4.22-1.8,7.54.58.48-2.47-3.65-5.39,0-5.8,2.14.8-.61,2.89,1.74,3.48,1.63-2.57,2.61.86,5.21.58.27-2.28-1.21-3,.58-4.06,1.14,1,2.9,1.35,3.48,2.9-1.44-.06-1.79-1.09-2.9,0,.79,3.44,2.23,4.55,2.32,7.53,4.46-5.66,8.7-13.31,14.49-17.38,9.65-6.79,0-27.08,4.64-38.83,2.77,4-.59,15.23,4,15.64-.17,1.18-1.16,1.54-1.74,2.32,1.64.48,1.51-.81,2.9-.58-.17,1.19-1.57,1.14-1.73,2.32,1.09.13,1.27-.66,2.31-.58-.51,1.81-2.73,1.9-3.48,3.48,2.26.13,3-1.25,4.64-1.74-1,1.9-3.06,2.74-4.06,4.64,1.79.43,1.12-1.59,2.9-1.16.12,1.15-2.45,2.48-1.16,2.9,1.22-1.33,4.16-3.93,5.8-2.9-2.76,1.31-7.32,3.87-7.54,5.79,2.95-1.3,6.19-5.39,8.7-5.21-1.87,3.17-8.52,4.6-8.7,7.53.63-.58,2.85-2.49,3.48-1.16-1.46-.25-3.52,1.82-2.32,2.32,6-2.14,9.63-9.07,15.07-9.85,3.29-29.49-3.73-51.3-13.91-69-1.86.14-2.09-1.31-4.63-1.74.87,8,8.18,9.59,10.42,16.23-2-.46-2.54.54-2.89,1.74,1.16,2.78,2.51,1.28,4.06,1.74,1.3,5.07,5.47,10.35,4.63,15.64-1.29-2.37-1.41-5.93-3.48-7.53,1.65,8.27,6.41,19.41,3.48,28.4-2.62-12.64-4.48-26-9.27-36.51-2.2-.84-1.11,1.59-2.9,1.15-.34-1.2-1.22-1.87-1.74-2.89-2.16-.62-.91,2.17-2.89,1.74-3.38-9.58-7.4-22.66-7.54-31.88,7.06,2.41,10.45,11.57,16.23,13.33-5.65-7.44-9.68-16.13-18-19.13.74.48,3.31,2,1.74,2.9-1.59-.94-4.46-3.62-5.8-2.9,2,3.78,5.71,9,4.06,14.49-2.49-4.66-3.23-14.14-8.11-14.49M268.3,324.63c3.65,15.17,15.25,25.18,12.17,45.21a11,11,0,0,0-2.32,4.05c1.14,6.64,4.64,16.64,1.16,22.6-1.74-9.27-2.38-19.65-7.53-25.5-.09,8.59,6.05,14,4.05,22.61a34.88,34.88,0,0,0-2.32-7c-.34,1,.7,3.41-.58,3.48-3.1-6.5-1.54-18.9-3.48-26.09-2.89,1.69-2.56-2.65-4.05-4-.77,3.28.23,8.76-2.32,11.59,2.37-11.32-1.17-18.61-2.32-29-9.4,11,.57,27.92,0,41.14-1.35-2.12-1.82-5.14-2.9-7.53,2.42,9.76,4,20.37,8.12,28.4,7-10.84,19.58,1.52,18,11-5.79-5.27-17.4-.78-16.8,5.21,1.42-2.05,3.82-3.12,5.79-4.63,5.32,1.3,11.24,2.59,13.91,5.8.39.47.35,1.92,1.16.58-2.81-6-5.34-17.84-1.74-24.92,1.15-1.16,8.38-.9,4.64,1.15,3.31-.41,5.18.62,8.11.59.31-2.63-3.26-1.38-4.05-2.91,10.87-.62,14.34,6.15,16.8,13.91,1.92,2.08.43-1.23.58-.58-3.43-14.78-15.7-15.89-27.82-14.49.38-2.13-.75-5.77.58-6.95-.09,2.61.48,4.56,1.74,5.8,0-7.17-.14-14.44,2.9-18.55.32,6.92-3.95,12.4.58,17.38.37-1.94-.75-5.38.58-6.37.17.87.75,4.19,1.74,2.32-1.57-5.44,0-13.85.58-17.39,1.65,5.46-2.33,17.14,4.06,21.44-.43-2.87-3.29-6.35-1.74-9.27.42,3.44,2.59,5.13,4.64,7-.05-1.73-2.66-3.87-1.75-4.64,1.51,1.42,3,5.84,4.64,5.22-1.06-3.4-3.77-8.2-2.32-12.18,2.63,5.3,3.77,12.08,7.53,16.23.14-.44,0-1.14.59-1.15a32.14,32.14,0,0,0,5.21,12.17c-.21-3.28-2.42-7.61-1.74-9.86,2.32,4.84,2.74,11.56,4.64,16.81-1.45-22.5-9.57-38.34-13.33-58.54-.33,9,4.92,15.56,3.48,23.77-2.91-6.3-10.3-34.83,2.89-33,10.81,1.47,23.2,18.68,39.41,21.45A45.66,45.66,0,0,0,374.35,364c-3.75-.35-9.52,2.43-11.59,0,5.21-1.11,9.11-2,15.07-1.15,1.33,2.54,1.61,6.12,4.06,7.53-.39-5.74-6-8.9-4.63-14.49-.69-.09-1.65.1-1.75-.58-5.52-12.55-12.36-29.75-12.75-48.68-1.33,6.16,0,13.14,1.17,18.55-2,1.76-2.75,1.82-5.22,2.32,3.58,5.69,7.83,10.71,9.85,18-1,.73-1.51,2-3.48,1.74-.43-7.84-5.21-15.92-12.74-18.55.57,6.75,7.09,14.61,7,23.19-4.52-5.33-6.85-15.94-11-19.71,2.16,5.18,2.77,11.91,5.21,16.81,4.46,1.72,6.57,5.8,9.27,9.27,2-.29,4.38-.25,5.8-1.15a5.38,5.38,0,0,1-4.63-2.33,2.52,2.52,0,0,0,2.31-1.15c-1.46-1-3.29,1.1-4.05-1.16,1.76-1.14,5.24-.55,6.95-1.74-2.76-.21-4.33-.32-5.79-.58.54-3.85-3.12-6.53-1.74-9.27,1.19,2.47,2.28,5.06,3.47,7.53,3.15-.14,6.07-1.35,7,1.74-.06,1.49-2.27.83-2.32,2.32,1.44.68,4.52-.27,4.63,1.74-2.9.06-4.22-.86-6.37.57,2.29,1,5.21,1.36,7,2.9-1.51.23-3.18.3-4.06,1.16,1.6.53,4.07.18,5.21,1.16-1.89,2.56-10.13,1.84-12.74,1.74.71-1.22,3.49-.37,4-1.74-2.48-.75-7,1.26-11.59-.58-.14,3.24,5.58.6,6.95,2.32-.06,1.48-.32,2.76-1.15,3.48-1.88.33-2.92-.18-3.48-1.17a1.62,1.62,0,0,1-1.16,1.75c-9.65-1.5-15.13-4-23.76-10.44,1.45.52,4.43,2.49,5.22,1.75-2.13-2.72-7.29-2.38-8.12-6.38,2,.73,7.46,3.63,6.37.58,2.33,3.58,7.14,1.41,8.7,5.21-2.56-.35-6.44-2.41-8.12-1.74,2.2,1.63,3.69,2.81,5.22,2.33.44,3.07-3.08-1-2.32,1.73a16.76,16.76,0,0,0,14.49.58c-5.84-1-8.66,1.8-11.59-2.31,4.68-.21,11.51.51,17.38.57a9.38,9.38,0,0,1-4.63-2.9c-1.26.48-1.29,2.2-2.9,2.33-.81-1.7-4.59-.43-4.63-2.9,1.67.88,1.81,0,4.06.57.22-1-.87-1.48,0-1.74.56.66,3.34,2,4.05.59-3-.42-4.05-2.77-6.38-2.32-.14-11.17-4.85-25.6-16.22-25.51.87,3,3.19,4.54,3.47,8.12-3.6-2.33-6.86-10.73-11-8.69,6.67,9.17,19.08,15.69,19.71,29-2-.81-3.2-3.23-4.64-2.9-1.13-4.72-3.81-10.79-6.95-11.6,1.41-1.36-.87-1.07-.58-2.89-8.37-3.42-10.25-13.33-17.39-18,.4,3.09,3.37,6.66,2.32,9.28-2.53-4.63-4.62-9.69-8.11-13.34,3.26,13.86,11.64,27,22.6,29.56-2.21-2.29,2.43.64,2.32-.57a10.83,10.83,0,0,0-7.54-2.32c-.12-1.1-2.32-3-1.16-3.48,1.32.26,2.93,3.2,4.06,1.73-.8-.05-2.26-2.25-1.16-2.31,2.74,3.25,7.54,4.44,8.11,9.85-.92-.47-3.53-2.19-4.63-.58,1.93,1.74,6.23,1.1,7,4.06-1.55-1.18-2.2-.55-3.48-1.16-.8.36-.08,2.23-1.15,2.32-3.25-.63-6.24-3.71-7-.58-1.85-.67-2.64-2.38-4.63-2.9,3.43-2.29,7.58,2.32,10.43.58-3.3-2.63-7.21-1.1-10.43-3.48,1.08-.55,1.93,1.74,2.31,0-2.94.33-.45-2.22-1.15-3.48-1.89-3.36-8.12-5.06-9.28-9.85.38,2,2.27,5.43.58,7.53-4.37-12.62-7.21-26.78-16.22-34.77,4.06,10.23,5.59,23,8.69,34.2-5.23-8.22-7.26-19.23-10.44-28.4-3.82-11-12.71-19.34-13.91-32.46-10.24-8.54-4.81-29.13.58-37.09-2.73,4.46-6.06,8.23-7.53,12.75-8.05,24.87,13,40,18.55,58-5.2-7.17-9.82-14.92-15.07-22,1,5.18,4.15,8.2,6.37,12.17-7-5-8-13.25-11-21.45-.35,1.2.94,4-1.16,3.48-2.26-16-2.82-33.51,5.22-44.05,1.4-1.84,4.14-2.33,5.79-4,3.38-3.53,5.64-10.09,8.7-15.07,8.61-14,15.32-28,24.34-41.15,1.58,7,2.66,13.95,1.16,22-.79-6.66-1-10.31-1.74-16.81-1.73,7.91-.75,20.56.58,27.82-2.14,2.78.11,7.77-1.16,10.43-.85,0-1.84-2.44-1.74,0,.23,4.33-.57,8.19,1.74,13.91-1.22,0-2.18-3.15-2.9-1.73,1.53,1.86.23,3.37,1.16,4.63-.83.31-1.42-2.26-1.74-.58,3.33,2.28,3.52,7.69,8.11,8.7-.56-3.11-.73-7.09,0-8.7,2.4,1.07,2.41,9.32.59,12.17-4-.26-5-3.53-7-5.79-1.26,2.42-3.15,4.19-4.64,6.37,3.42.53,2.47-3.32,5.22-3.47-.22,4.11-4.67,6.16-3.48,9.85,6.58-2.32,16.31-6.7,13.91-12.75,1.32.1,3.38-2,2.32-2.32-.94.66-1.83,2.27-2.9,1.16,1.35-2.33,5.51-4.92,5.22-7-.16.53-2.16,1.95-2.32.58,1-1.74,3.25-2.15,4.06-4.05-1.87-.29-3.43,2.7-4.64,1.16a21.49,21.49,0,0,0,6.38-5.8c-2.8.12-5.27,3.59-7,2.9,1.71-3.13,6.5-3.16,8.11-6.38-1.78-.43-1.11,1.59-2.89,1.16,3.52-4.6,4.54-9,7.53-14.49.1-.42,1.18-6.72,4.64-8.11.1,1.31-2.79,2.55-1.16,3.47,1.4-1.49,2.77-3,4.06-4.63a99.89,99.89,0,0,1-.58,23.18c-.69-.08-1.32-1-1.75,0,1.06,2.64-1.65,2.93.59,6.95-1,.23-1.49-.85-1.74,0,.6,1.37,1.22,6.36-.58,5.23.1,1.64,1.06,2.41,1.16,4-.83-.14-1-.95-1.74-1.16-.42,1.77,1,1.71.58,3.48-1.57-1.14-3.16-2.25-3.48-4.64,3.29-8.53,5-24.66,4.64-33-3.78,10.12-9.21,24.75-11.59,34.2-.49,1.93-3,4.77-4.06,7-3.57,7.11-6.52,15.63,4.06,16.22,3.22-6.62,3.8-15.91,7.53-22,0,2.67,4,4.5,2.9,6.37-.59.07-1.18-2.5-1.74-.57.51.52,1.66,3.27.58,3.47-.77,0-.53-1-1.16-1.16,1,4-1,1.29,0,5.8-1.7-.11-1.15.81-2.9.58,1.66,3.17,2.25,7.41,5.22,9.27,7.79-11,3.8-26.84,6.95-38.83-1.92-8.43-1.07-20.92-1.74-29-10.72,8-16.31,21.17-26.07,30.14.14,3.34,2.13,8.85-1.74,9.86-.9-10.33-2.13-25.75-1.16-35.94,2.21,6.16,2.07,16.88,2.9,22.6,3.93-5.12,9.33-12.31,14.49-18,2.57-2.82,6.77-4.89,7.53-8.1,2-8.41-2.75-20.94-1.74-30.15,1.12-10.25,8.3-22.44,1.16-32.45-4.12-.91-5.32-4.73-9.85-5.22-1.38.44-1.34,3.82-3.48,1.74,5.17,9.08,8.86,27.09,5.21,39.42-.54-14.34-2.09-27.66-7.53-37.1,1,12.12,2.76,26.61,3.48,37.1-1.7-2-1.47-5.88-2.9-8.12-1.19,9.37,2.76,19.86-.58,29-4.13-18.3.69-38.4-2.9-56.8-2.58,1.66-1.14-1.72-3.47-1.74.11,2.33-.15,2.59-1.16,1.16-2.06,5.14,1.09,16.77-1.74,22.6-.35-7.11-2.31-15.31-.58-22.6-5.89,2.42-4.4,12.22-5.8,19.12-1.3-7-.19-13.55,0-18.54-.73,1.83-6-.11-9.27.57,1.85,4.77,6.24,15,4.64,23.19-1-9.42-2.84-18-8.7-22.6,3.66,15.08,8.27,32.3,6.95,50.42-1.7-9-2.4-20.05-4.63-30.14-1.65-7.43-2.59-15.81-7.53-20.28,0,7.42,4.55,18.18,4,26.08-4.87-7-2.12-19.46-9.85-24.34,1.44,5.21-.9,9.34-.58,13.33.78,9.8,11.36,15.44,7,27.24-.58-2.53-.68-5.51-1.75-7.53-1.09,4.69-.4,11.18-2.31,15.06-1.44-.88.35-5-1.16-5.79-1.55,3.28.43,10.09-1.16,13.33-2.55-8.81,1.27-15.37,1.74-23.19.42-7-3.77-12.52-4.64-18.54s.84-13.72-6.95-16.24c-2.17,4.6,3.06,9.61,1.74,13.34-3-3-2.45-9.53-6.38-11.59-2.37,11.84,8.68,18.79,7.53,29.55-.27,2.54-2.16,5-2.31,7.54-.75,12.1,5.95,23.36,4.63,38.25-1,.75-.71,2.76-2.32,2.9.66-2.57,1.58-9.95-.57-11.59-.11,8.39-2.83,14.18-5.8,19.7.75-10.85,6-22.51,4.64-34.77-.58-5.15-3.4-9.71-2.9-14.49.18-1.67,2.13-4,2.32-6.38.56-7-4.73-11.85-6.38-19.7-1.77-8.45-2.6-12.65-8.69-13.91-.65,15.9,7.24,26.36,7,40-1.67-3.74-1.48-9.33-4.05-12.17-.53,15.07,1,29.76,0,44,.12-9.88-3.1-19.7-3.48-29.55-.24-6.42,1.82-12.66,1.16-19.13-.47-4.56-2.53-8.85-2.9-13.33-.35-4.16,1.27-8.59-1.74-12.17-10.09,2.57-2.06,12.39-1.74,19.71.3,6.61-5.66,16.61-6.37,27.24-.85,12.68-2.71,25.51-.58,34.77,5.25.54,10.55,1,14.49,2.9.26,2.05,1.28,3.35,1.16,5.8-4.83,3.8-12.72.42-18.55,0,3,4.76,13.28,2.17,13.91,9.26-2,4.22-8.74.79-11,4.06,3.76.29,7,1.13,7,5.22a8.81,8.81,0,0,0-4.63,5.22c.68,1.44,3.67.58,4,2.31-1.37,9.11-1.08,19.9-6.95,23.19,3.69,6.67,2.24,14,5.22,19.7,3.66,7.09,12.65,11.19,12.75,20.87-3.46-3.31-4.89-8.65-8.7-11.6.15,2.57,2.79,5.69,1.74,7.54-2.39-1.1-3-7.06-5.22-6.37,3.31,8.67,10.66,13.29,13.34,22.6-1.45.23-2.66-4.47-2.9-1.74m57.38,18c.45,1.87,4.32,3.37,5.79,2.31-2.21-.49-3.69-1.72-5.79-2.31m-135,1.16c2.69-.83,4.91-8.64,6.37-5.22-.18-6.88,6.06-12.41,3.48-18-2.14,5.41-9.26,8.9-10.43,13.33,1.45-1.44,2.73-3.06,4.64-4-1.89,2.82-6.58,8.79-7,9.27,3.19-2.79,3.8-3.62,5.8-4.05-.91,5.46-4.59,8.15-8.11,11,1.5-.58,3.88-1,4.64.58-5,3.11-10.4,5.83-15.08,9.27,2.1,2.38-4.75,8.7-8.11,7.54,1.22-1.5,6.14-2.33,4.64-4.64-3.36,2.63-6.49,5.5-9.85,8.12,1.72.52,3.53-1.81,4.05-.58-1.56,2.07-5.89,1.69-7.53,2.31-.65-3.16,3-2,3.48-4.05-3.37,1.65-7.38,2.67-9.86,5.22,2.33.55,4.62-1.91,5.8-.59-2,4-5.47,2.49-9.27,2.32-.43-2,2.14-.95,2.31-2.32-1.79-.76-3.21,1.72-4,0,1.32.17,2.17-.13,2.32-1.15-2.48-.23-6.33.91-6.38-1.74,1.26-1.15,4.95.91,5.8-1.74-1.6-.2-4.07,1.66-5.22,0,1.55-1.54,4.59-1.6,5.8-3.48-1.94-.6-4.52,3.07-5.22,0,2-1.07,5.95-.23,5.79-3.48-2,.34-2.69,1.94-5.21,1.74,4.27-15,12.76-25.88,24.92-33-4.94-.33-8-.66-12.17.58-.6-1.95,1.06-6.52,0-5.22-1.58,9.82-5.12,17.67-11,23.18-3.64,7-3.65,17.6-6.37,25.5-1-2.61-1.82-5.51-3.47-7.53.05,3.61,1,6.38.57,10.43,33.8,9.84,39-28.94,70.13-27.24,6.67,4.34.44,11.17-.58,17.39-1.1,6.78.72,14.74,1.74,19.7,1.72,8.36,7.93,14.95,8.7,24.93,1.39,18.08.21,31.65.57,46.94.65-11.17.4-28.21,11.6-26.66,3.38.47,4.92,4.46,7.53,7-.07-4-3.28-7.92-5.21-8.12-3-3.12-10.42-.4-12.17,6.37-1.94-14.21,14-11.72,18-4.62-1.49-5.48-6.44-7.49-12.75-8.13-2.1,2.16-3.4,5.1-5.79,7-1-12.84-3.19-31.31,8.11-32.46,4-.4,6.77.7,8.11,4.07-3.68-4-15.48-2.35-13.91,3.47,2.2-5.91,13-4.51,15.65,0,4.31-5.58,6.19-15.42,18.55-14.49a75,75,0,0,1,7,16.81c-1.62-14.22-6.69-25-7.53-40-1.15,5.31.24,11.8-.58,16.22-1.3-2.75-1.1-7-2.9-9.27-.43,3,.63,7.46,0,8.69-2.06-1.6-2.32-5-2.9-8.1-2,.12-2.74,1.5-4.64,1.73-16.35-11.72,2.5-33.45,2.32-48.1a119.71,119.71,0,0,1-10.43,24.92c3.12-21.8,18.39-34.55,16.81-59.11q-11.55,28.72-20.86,59.69c-1.81-1.41-.35-2.48-.59-5.22-2.33-6.94-8.27-10.27-13.9-13.9,8,.5,11.73,5.26,14.49,11-.23-6.35-4.56-8.59-8.7-11,5.38-.93,7.11,4.86,9.27,5.21-1.31-3.9-4.85-5.58-8.11-7.54,5.76-.54,6.49,3.94,9.85,5.8-1.17-6.36-7.88-7.18-13.33-9.27,5.51-1.12,11.54,2.38,13.91,4.05-2.67-3.7-7.61-5.14-12.17-6.95,6.67-1.26,10.3,3.6,12.75,4.63a14.56,14.56,0,0,0-6.37-5.21c4.18-.7,6.28,3.75,8.11,3.48-2-3.06-5.31-4.74-8.7-6.38,4.49-1.18,6.71,2.95,8.7,2.32-2.17-2.47-5.66-3.61-9.27-4.64,4.15-1,7.31,1.95,9.27,1.16-2.39-2.24-6.75-2.52-9.85-4.06,5.17-1.52,8,1.87,10.43,2.32-1.62-1.08-2.41-3-4.05-4.05,2.5-.93,3.83,2.29,4.63,1.15-.85-.5-1.84-.86-1.74-2.32,1.14.27,2.9,2.84,3.48,1.75-1.06-1.07-2.29-2-2.9-3.48,1.09.12,3,2.32,3.48,1.16-.8-.6-3.44-2.3-2.32-2.9.77-.09,2.16,1.95,2.32.58-.77-.82-4.17-2-2.9-2.9,1.44-.75,2.41,1.7,2.9,0-.87-.67-2.37-.72-2.9-1.74,1.57-1.33,2.71,1.11,3.48,0-.67-1.84-4.29-.73-4.06-3.48,1.48-.44,2.66,2.28,3.48.59-.73-1-2-1.52-1.74-3.48,1.58-.42,1.16,1.15,2.32,1.16.16-3.51.89-6.45,2.89-8.12-1.38,8.57-.51,11.8-.57,19.13,2.25-9.58,9.47-18,9.27-27.82-.06-2.81-2-5.51-1.74-8.11.44-4.74,3.9-6.32,4.64-9.86.85-4.12.28-8.61,1.15-13.33-2.8-.29-3.68-2.49-4.05-5.21.75-2.15,3.64-2.15,3.48-5.22-9.14-1.11-3.88-9.81,4.05-8.11-1.41-4.58-9.15-2.83-12.17-5.8-3-9.46,14.19-2.53,18-5.8-2.61-3.37-9.92-2.05-15.65-2.31a138.81,138.81,0,0,1-.58-29c1-11.95,6.43-24.16,7.53-35.35.76-7.68-3.07-12-2.31-19.13-2.5-.76-1.84,1.64-2.9,2.32a214.11,214.11,0,0,1-2.9,28.4c-1.33,8.62-3.77,18.22-7.53,23.18,1.64-10.72,7.55-20.26,5.21-33-2.53,9.05-4.56,18.62-8.69,26.07.1-17.47,11.81-26.44,10.43-43.46-5.8,7.38-6.56,16.36-12.75,22.6-.3.3-.93-.74-1.16-.57a56.49,56.49,0,0,0-5.79,5.79c-8.62,9.32-4.88,27.79-5.22,44.62-.68-2.79-1.78-5.18-1.74-8.69-2.87,5.08-7.23,10.34-6.37,17.39,6.84,5.37,9.47,19.83,13.91,29.55,1.17,2.59,3.59,4.2,4.06,6.38,2,9.5-1.51,25.87-5.23,34.77-2.93,7-7.1,12.57-12.74,15.07-6.62,5.55-4,19.35-7,27.24-.36-1.57.74-4.6-.58-5.21-1.55,4.24-3.26,11.41-6.95,11.58,2.87-7.94,7.09-14.53,8.11-24.34-6.77,4.2-6,20.4-10.43,26.09-.32.41-3.12,3.95-4.06,1.16.32,0,.66-.48,0-.59-1,.38-2.45,3.29-3.47,1.75m-5.22,4.05c-1.86.51-.8-1.91-2.32-1.74-.84,1.47-3.51,1.12-4.06,2.9,1,.35,2.41-1.7,2.9,0a23,23,0,0,0-7,4.64c3.43-2,7.77-3.05,10.44-5.8M161.08,140.9c1.4,1.54,5.51-2.76,2.32-4.05a10.5,10.5,0,0,0-2.32,4.05m224.87,7c2.05.31,3-.49,3.48-1.74-1.6-1.89-2.22-4.74-4.64-5.79-1.92,2.78,1,5,1.16,7.53m-226.61,2.9c1.61-.71,1.07-3.56,1.16-5.8h-1.74c.54,1.89-2.25,5.34.58,5.8m227.77,2.9c1.23-1.3.41-3.82-1.16-4.06-1.24,1.3-.41,3.82,1.16,4.06M140.79,208.13a226.12,226.12,0,0,1,5.8-53.31c-5.83,13.16-8.57,35.4-5.8,53.31m15.07-46.36c2.34.54,3.58-5.33,1.16-5.79-1.05,1.18-2.09,4.43-1.16,5.79m238.2,2.32c.21-4.26-1.26-6.85-4.06-8.11-.76,2.94-.32,8.51,4.06,8.11m-237,1.15c.78.19,1.1.83,2.32.59-.32-.84.68-3-.58-2.9-.17,1.18-1.57,1.14-1.74,2.31m-1.74,26.67c3.09-3.87,5.06-8.85,5.8-15.07-7.86.45-7.68,10.88-5.8,15.07M290.9,231.32c0,4.22-2.91,6.73-1.74,10.43,5.55-2.32,11-6.73,7.53-8.12,1.37-.17,1.08-2,2.9-1.73.13-1.1-.65-1.28-.58-2.32,1.32.1,3.38-2,2.32-2.32-.07.47-1.91,1.76-1.74.58.4-1.35,1.93-1.55,2.32-2.9-.68-.09-1.64.1-1.73-.57a4.63,4.63,0,0,0,3.47-5.22c-.06.46-1.91,1.75-1.74.58,3.66-3.22.87-2.71,3.48-5.8-1-.23-1.49.86-1.74,0,.51-1.81,2.73-1.9,3.48-3.48.18-5.39,8.5-18.27,9.27-24.34-8.55,14.95-16.53,32.48-25.5,45.21M157,196c2.08.26,3.31-5.6,1.16-5.8-1,1.32-1.4,3.24-1.16,5.8m157.64-1.74c-5.16,17.4-11,33.68-14.48,50.42,2.64,1.22,5.88,1.83,8.69,2.9,3.76-6.77,3.81-15.82,5.21-24.35a160,160,0,0,0,2.32-28.39c.32,0,.66-.47,0-.58-.84,2.16-.77,1.46-1.74,0M170.93,241.75c1.43.62,3.15,1.32,1.16,2.32,1.92-.3,2.52,3.26,3.47.58-.06-1.19-1.5-5.59.58-8.11-6.94-10.84-14.5-21-24.92-28.41-1.7,16.52-1.91,25.45-5.22,40,8,3.41,12.32,13.57,18.56,16.8-2.53-6.35-5.3-9.44-6.38-13.91-2.05,2,.09-1.7-1.16-1.74-.12.66-.64.91-1.16,1.16-.42-1.77.59-2.11.58-3.47-1-.23-1.48.85-1.74,0,.15-1.06,2.09-3.25.58-4.06.42,1-1.15,2.52-1.16,1.16-.54-1.94,2.08-3.66.58-4.64-.62.54-.18,2.14-1.74,1.74.74-4,1.25-11.74-.58-17.38-.12.45-.48.67-1.16.58,1.25-3.85-.65-8.72,1.16-12.76,3.79,22.87,8.19,45.14,18.55,61.43,1.77-.41,2.11.6,3.48.59.12-.46.49-.68,1.15-.59,1.17-2.23,2.8-3.64,2.33-7-1.57-10.92-10.17-20.68-11.6-30.13-1.37-9.13-8.52-14.24-9.27-20.29,4.82,5.61,8.69,12.18,13.33,18-1.08.56-1.94-1.73-2.32,0,1.19,1.13,3.83.81,4.06,2.91-1.08.55-1.94-1.74-2.32,0,.86.68,2.59.5,2.32,2.32-1,.22-1.49-.87-1.74,0,.86,1.07,3,.86,2.9,2.89-1.32.8-2.18-1.49-2.32,0m198.79,23.77c-1.25,1.39-.25-1.73,1.74-.59,1.28-.83-.73-1.41.58-1.73.45-.14,1.14,0,1.16-.58-1-.34-3.41.69-3.48-.59.61-1,5.94-.18,4.06-1.73.17,1.18-1.68-.12-1.74-.58,1.08-.85,3.84,0,4.64-1.16a4,4,0,0,1-1.74-1.16c1.39.23,1.25-1.06,2.89-.58a2.72,2.72,0,0,0-.57-1.74,4.72,4.72,0,0,0,3.47-1.16c-.68-.09-1.64.1-1.74-.58,1.83.29,2.05-1,4.06-.57.17-1.15-.78-1.16-1.16-1.75,1.61-.44,3.88-.58,1.74-1.74.35-.8,2.23-.08,2.32-1.15-.68-.09-1.65.1-1.74-.58,2.66-2.36,4.27-2.25,8.12-5.8-.18.16-1.37-.25-1.17-.58.69-1.08,3.1-1.32,4.64-2.9.79-.8.76-2.87,1.74-4.05C400,231.3,405,230,402.17,229c3.67-2.14,6.09-5.51,9.86-7.54.76,1.46-2.29,1.82-.58,2.33.39-.65,1.92-3,2.31-1.75-4.73,10.38-8.95,17.71-11.59,30.14-1.84-1.55-1.29,3-3.47,2.9,1.56.79-2.21,8-4.06,5.22-.34,1.87.4,2.69.58,4.06a2.75,2.75,0,0,1-1.74-.59c.49,2.84-2,2.26-.58,4.64-1.15,0-.73-1.58-2.31-1.16-.65,1.72-.21,4.1-.59,4.64-1.18-.33-1.13-1.75-2.31-.58-.43,1.77,1,1.7.58,3.48-1.34.17-.65-1.67-1.74-1.75.54,4.3,2.51,7.15,4.06,10.44,1.58,0,1.16-1,2.31,0,5.18-12.79,8.94-27,13.91-40,0-.77-1-.53-1.16-1.16.55-.34,1.6.69,1.74.58,2.93-2.28,7.58-22,8.11-26.08-10.39,8.53-22,14.8-31.29,23.18-.91.82-3.4,5.6-6.38,5.22-4.36,8.46-19.43,13.28-18.54,21.44,2.59,1.27,10.8.5,10.43-1.15m12.75,9.27c8.22-15.16,20.74-29.1,25.5-45.79-.28,1-.62-.25-1.16-.58a129.94,129.94,0,0,0-18.54,23.76c-7.44,5.7-13.28,13-19.13,20.29,1,.22,1.49-.86,1.74,0-.5,1.68-.87.65-2.32.57-1.24,6.88-7.5,11.82-8.69,16.82,1.94-2.51,4-4.85,5.79-7.54,1.13,2.74,4.78,2.95,5.22,6.38-.58,0-.69.47-1.16.57-2.13.36-2.88-3.63-4.06-2.31,1.15.39,1.55,1.54,1.74,2.9-.77.08-2.16-1.95-2.32-.59.77.82,4.17,2,2.9,2.91-1.73.33-3.55-2.2-4.05-1.17.85.74,3.8,2.33,2.31,3.48-1.39-.1-4.38-3.66-3.48-2.31.58,1.93,3,2,3.48,4.05-2.4,1.53-3.66-2.31-5.21-3.48-.27,2.43,3.55,3.76,2.32,5.22-2.13,0-2.23-2-3.48-2.9.22,2.68,2.22,3.58,4.06,4.64-.69,2.64-3.57-.51-4.06.58.68.86,2.41.68,2.32,2.31-1.45.74-1.81-.29-2.32.59,2.12,1.23-2.14,4-.58,4.63,2.74-2.86,4.17-7,7.53-9.27,13.27,37.67,39,64.19,37.09,115.33,5.42-45-15-82.86-33.61-109.54-.05-2.59-2.16-4.06-2.9-6.37,2.06-4.51,3.91-9.23,7.54-12.17-.34,1.59-1.45,2.42-1.74,4.06,1.5-.11,3.88,1.84,4.63.57.43-1.2,2-1.26,4.06-1.73a1.6,1.6,0,0,1-1.74-1.16c4.56-.73,7.77-2,11.59,1.16.95,2-.07,1.74-1.15,2.89,2.49,2.15,6.35,2.91,8.11,5.8-5.18-3.64-8.53-1.75-13.91-3.48,4.85,2.49,9.93,4.76,14.49,7.53,1.4-.78.36-1.15,1.16-1.73,1.57-.37,2.71,2.62,3.47,1.16-.64-.94-4-2.09-2.89-2.9,1.74,1.1,2.92,2.16,4.05,1.74-2.76-1.31-.18-1.34-1.16-3.48,1.22.13,4.08,1,3.48,0-4.72-2-11.46-2.06-15.06-5.22,1.17-.17,1.13-1.57,2.31-1.74,2.71,2.38,11.76,4.39,13.33,4.06-4.08-.56-4.31-3.58-4.64-6.37-1.69-14.56,9.74-35.18,7.54-49.85-5.41,17.58-8.29,37.69-18.54,50.43-4-2.93-10.36-3.55-16.24-4.64.25-1.1,1.25-1.46,1.17-2.9-3.74-.14-8.08-2.73-7-5.79,2.73,2.45,7.66,7,12.17,4.05.47-2-1.08-2.44,0-3.47M183.68,236c1.84-.89,2.55-.21,4.63,0-.11-3.68-2.86-1.28-5.21-2.9-.48,1.64.82,1.5.58,2.9m-51.58,5.21c-2.29-1.39-3.36-4-6.38-4.63,1.24,9.11,9.09,15.67,13.33,23.76,7.63,14.52,15.13,29.11,23.76,42.3,3.34-.92,5.2-3.31,7-5.79-4.18-9.92-10.36-17.84-17.39-24.92-4-7.54-9.59-13.59-15.07-19.71-1.24-6.48-9-9.56-9.85-14.49,1.34,1,3.63,4.07,4.64,3.48m64.91,0c1.6-.33,3.25-.61,2.9-2.9H197Zm-55.64,27.24c-1.88.08-3.06-1.78-2.9-5.21-.83-1.29-1.41.72-1.74-.58-4.24-7.34-7.74-15.45-12.17-22.61,7,23.18,17.52,42.76,26.08,64.33.1-5.43,2.55-10.86.58-15.07-.7,1-.11,3.38-1.15,4.06-1.17-1.29,1.25-6.23-.59-8.11-.09.87.21,2.13-.57,2.32.25-2.82-.83-5.28-1.74-2.32,0-8.73-5.68-8.21-5.8-16.81M142,251.6c.29.35-.75.91-.58,1.17,1.49,2.2,7.85,3.17,5.8,5.79,1.62.77,5,2,3.47,4.06,1.65.09,2.42,1.06,4.06,1.15-1.67,2.24,3,2.19,3.48,4.06-.87.1-2.14-.21-2.32.58,1.69.25,4.17,1.46,2.9,2.9,1.76.55,4,.68,4.64,2.32-.87.1-2.14-.21-2.32.58,1.1.24,2.49.2,2.32,1.74-1.19.34-3.2-1.1-1.74,0,.15,1.19,2.56.13,2.31,1.74-.68.08-1.64-.11-1.73.57,1.32-.16,2.17.14,2.32,1.17-1.32-.17-2.19.13-2.32,1.15,5.09-1.25,10,4.76,16.22,2.32-6.67-5.1-13.81-9.76-17.38-18-6.43-.57-6-8.26-12.75-9.85v-2.31c-6.35-2-10.63-9.09-15.65-10.44A96.56,96.56,0,0,1,142,251.6m221.4-2.89c.14-1.89-.69-2.79-2.32-2.9-.15,1.89.68,2.79,2.32,2.9m-164.6,1.15V247H197c-.11,1.65-.07,3.16,1.74,2.89M299.59,247c-1.77,10.21-5.07,22-5.8,31.29.37-1.95.42-4.22,1.75-5.22,1.28,1.43,3.32,2.09,5.21,2.91-.34,2.72-5.31-.1-5.79,1.15,1.41,2.11,6.84.47,8.11,1.16-1.37,2.25-7.62.6-8.11.58,1.28,2,5.37,1.21,7.53,2.32-2.52,1.81-6,.14-7.53.58,1.84,1.67,5.92,1.4,7.53,1.74-2,3-7.48,1.48-9.27-.58.39,4.25,7.4,1.87,8.69,5.21,2.9-12.7,7.12-25.57,7-38.25-3.88,2-6.88-3.24-9.28-2.89m58,4.63c1.84.87,3.23,2.2,5.22,2.9,1.3-1.54-4.18-5.5-5.22-2.9m4.07,5.22c-.33-1.6-.62-3.25-2.9-2.9-.25,2.69,1,3.9,2.9,2.9m-40,50.43c-2.24-.72-7.6-.1-7-5.22,1.58,1,3.76,4.32,6.38,2.31-4.58.41-7.7-4-4.06-6.95,1,1.87,5.46,3.87,7,1.74-3.79.11-7-.3-7-4.06.83-.31,1.41,2.26,1.74.58-1.14.28-1.87-2.66-.58-2.9,2.38,1.9,6.4,4.09,9.27,1.16-3.55,1-8.56.61-9.27-2.9,2.31-6.39,3.67-13.71,6.37-19.7a15.29,15.29,0,0,0,6.38,3.48c-.75,1.69-5.58-.76-4.06.57,1.06.88,3.25.62,4.06,1.74-1,1.22-6.28-.13-4.64.59.72,1.21,3.49.37,4.06,1.74-.75,1.68-5.59-.76-4.06.57.42,1.32,4-.53,3.48,1.74-1.25.16-6.18-.45-4.63.58,2.91-.38,4.67.73,6.37,0-1-5.34,2.13-9.77,2.32-15.65a24.63,24.63,0,0,1-8.11-2.9c-3.9,14.28-10.53,28.89-12.18,43.48.34-4.83,4.83,1.71,7.54,1.73-1.49,1.36-5.85-1.64-7-.58,1.88,1.22,4.35,1.83,6.38,2.9-2.68,1.61-5.46-.9-6.38-.58.87,1.64,3.57,1.46,5.22,2.32-1,2.18-6.26-1.36-4.64,0,.65,2,5,.4,6.38,1.73,1-3,1.11-7,3.47-8.69,4.87-.93,9.17-2.43,12.17-5.21-2.33-.19-4.72,2.58-6.37,1.16a20.91,20.91,0,0,0,5.22-2.9c-1-.35-2.41,1.7-2.91,0,2.59-1.37,2.38-2.93,5.22-4.64-1.69-.15-1.77,1.31-3.47,1.16,1.88-1.91,6.63-7.27,3.47-6.38,5.32-6.45,6.86-15.17,12.17-23.75-1.61,10.84-8.05,20.25-10.43,29-2.23,8.18-4.67,13.15-4.05,19.13,2.91.56,4.59,2.35,8.69,1.73,5-18.29,7.73-40.64,10.43-60.27-12,16.7-24.32,35.42-33,52.17M353.49,298a2.75,2.75,0,0,1-1.74-.58c0,1.73,1.51,2,1.74,3.48-1.21-.34-1.87-1.22-2.9-1.74,1.23,2.53-.29,1.87-1.16,2.31a5.74,5.74,0,0,1,1.74,3.48c-.83.31-1.4-2.25-1.74-.58,1.42.44.12,1.74-.57.58,1.74,3.86,4.3,10,7.53,10.43-1.62-.74.71-2.31,1.15-2.9a238.71,238.71,0,0,1,1.17-31.29c-2.37-5.58-1.08-15-3.48-24.34.5,9.19-2,16.38-1.16,24.92-.58,0-.69-.47-1.16-.58.09,2.64,1.38,7.38-.57,6.38-.34,1.53,2.38,2.95.57,4-.14-.62-1-1.39-1.16-.58.16,2.3,1,4,1.74,7M179,275.36c.25.94-2.16,1.95-2.32.59,1.17-1,2.7-1.56,2.9-3.48-2.46,1.18-2.69.95-1.16-1.16-2.92,1.91-4,4.39-3.48,5.79.66-1,5.89.82,4.06-1.74m38.83-1.15c2.18-.17,7.46-.25,5.8-2.32-.95,1.75-4.49.93-5.8,2.32m164,6.37c1.22.51,1.72,1.77,3.48,1.74-.44-1.78,1.6-1.11,1.16-2.89-1.75.17-4.51-.65-4.64,1.15m-55.06,7.53c-7.58-1.57-4.63.84,1.74.59-.23-2.56,1.32-3.32,2.32-4.64-1.28-.39-5.86-.17-6.95,0,1.11,1.2,4.83-.2,4.63,2.31-.44-.06-5.94-.57-4.63,0,.39,1.16,3.45-.35,2.89,1.74m-27.24,1.75c-2.42,1.84-6.13-1.05-6.95-.59,1,2.65,6.76.59,8.11,2.91-1,1.47-5.41-.39-6.38,1.15,1.63.7,4,.64,6.38.58.05-2.07.9-3.35,1.16-5.21-3.46.16-7.4-2.24-8.69-2.33,1.8,1.84,4.45,3.36,6.37,3.49M126.3,328.11c-1.31,1.6-4.49,4.37-5.79,4.05,1.19-16.58,19.89-18.75,25.49-29-.39,1.14-1.54,1.54-2.89,1.73-1-6.09,1.7-11.89-2.32-16.22-.31,1.09-3,2.68-1.74,3.48a.59.59,0,0,1,1.16,0c-1.92,1.16-.55,2,0,3.47-1.17,1.93-3.65,5.6-2.32,8.12.72-.5,1.61-3.74,2.32-2.33-1.53,2.14-1.91,5.44-2.9,8.12-1.74-1.15-1-5.88-3.47-4.64-.63-1.48,1.76-2.76,0-3.48-3.06,4.87-5.42,10.43-8.12,15.66.46-.41,1.29-3.24,0-3.48-3.69,7.12-8.32,16.4-7,26.66,1.66-4.53,6.82-8.64,7.53-12.17m4.06-23.19c-2.22.31-4.18,3.91-2.9,5.8,1-1.9,3.35-2.45,2.9-5.8M328,290.43c-1.57.36-4.6-.73-5.22.58.92.05,2-.07,1.74,1.17-2.06.84-3.47-1.87-4.05-.59,1.86,1.2,8.1,3.33,7.53-1.16M213.24,304.92c1.12-1.39,3.25-1.77,3.48-4.05-2.34-4-3.23-7.87-6.38-9.86-.17,1.14.78,1.15,1.16,1.74-2.2-.62-4.42,1.71-3.48,2.32.46-.57,2.73-2.21,2.9-1.16a8.14,8.14,0,0,0-2.9,2.9c2.08.15,2.13-1.74,4.06-1.74-.8,1.72-2.68,2.35-3.48,4.06,1,.34,2.41-1.7,2.9,0a26,26,0,0,0-2.9,2.31c2.5.54,4.21-2.7,5.22-1.73a8.31,8.31,0,0,1-4.06,3.48c-4.19.92,3.35.49,4.06-.59.77,1.45-2.29,1.82-.58,2.32m217.33,31.3c-14.25-18.59-33.69-35.08-56.79-42.89,21.71,11.13,42.19,26.59,56.79,42.89m-130.39-40c-1.59.1-6.3-1.75-5.22-.58,1.11.79,4.39,3,5.22.58m-164,5.21c.64-1.86,1.58-3.42,1.73-5.79h-1.73c.14,2.46-2.34,4.4,0,5.79M398.7,320c-2.16.54-5.34-4.29-2.9-2.89-.32-3.44-2.41-1.17-3.47-1.75,0-.91,1.47-.45,1.15-1.73-3.13-.55-5-5.43-7.53-4.64,5.78,6.58,10.28,14.45,16.22,20.87-.44-3.24-3.57-6.85-3.47-8.7,1.09-.13,1.28.65,2.32.58,3.28,9.42,4.26,19.19,7.53,26.08,2-3.59,7.76-6.53,6.95-11-2.52,1.93-3.34,8.63-6.95,7.53.9-1.63,4.53-3.56,3.48-5.21a7.77,7.77,0,0,1-4.64,2.89c.13-2,2.57-4.73,1.74-5.79-.06.8-2.26,2.26-2.32,1.16,2.06-1,2.71-3.47,4.64-4.63.06,1.09,1.91.39,1.73,1.73-1,1-4.3,2.61-2.31,4.64,1.46-1.44,2.62-3.18,4.06-4.64.23.66,3.28,2.28,1.74,1.16-6.44-4.39-11.74-9.9-16.82-15.65-3.58-13.6-17.8-19.67-29-23.76,10.94,5.86,26,10.72,27.82,23.76m-73.6-23.18c-2.7,1-4.13-.94-5.8,0,1.29.2,5.36,2.68,5.8,0M164,304.34c3.94-.5,6-2.85,7.54-5.79-3.32,1.13-3.8,5.08-7.54,5.79m0,1.16c3.76,6.29,8.3,14.89,12.75,18.55-1.87-2.77-3.49-5.78-5.21-8.7,3.83.54,6.53-3.1,8.11-2.9-.59,2.11-2.28,3.13-4.06,4.06,3.17.83,4.44-3.27,5.8-2.31-.8,1.71-2.68,2.34-3.47,4.05,2.52.41,2.57-1.67,4.63-1.74-.53,2.56-3.3,2.89-4.63,4.64,3.16.75,5.37-4,7-1.16-1.67-.79-3.27,2.69-5.8,2.9,3.74,1.31,6-3.33,7.53-.58-1.48.64-3.16,1.08-4,2.32,2.36.28,3.93-2.15,5.79-.58-4.45-7.95-7.06-12.28-12.17-18-1,1.14-1.35,2.9-2.89,3.48-7.49,3.68,3.26-.48,4.05-1.16-.29,2.41-2.48,2.93-4.05,4.05,1.44.76,2.81-1.29,2.89,0-.68,1.64-2.71,1.93-4.63,2.32-2-1.09-2.63-3.55-4.06-5.21a9.08,9.08,0,0,0,8.69-4.64c-1.38-1.51-2.13-3.65-4-4.63-2.29,2.15-4.15,4.74-8.12,5.21m157.65-2.9c-1.95,0-4-2.92-5.22-1.73,1.22.73,4,3,5.22,1.73M408,307.82c3.5,3.85,8.78,9,12.17,11A1.58,1.58,0,0,1,419,317.1c.8.28,3.44,3.19,2.32,1.73-.08-.68-1-1.31,0-1.73,1.57,2.25.1.16,1.16-.59.3.23.86,2.82,1.16,1.16-2-4.14-4.17-8.19-7.53-11-.36,2.13,3.63,2.89,2.31,4.06-1.3-1.4-2.32-3.09-4-4.06.17,1.14-.78,1.15-1.17,1.74.34.52,2.4,2.13,1.17,2.32a11.87,11.87,0,0,0-3.48-3.47c.38,1.91,1.68,2.5.58,3.47-.37-1.27-4.69-3.8-3.48-2.9M193,320.57a31.89,31.89,0,0,0,4.64-2.32c-.86-.11-.53-1.4-.58-2.31-.84-1.29-1.41.72-1.74-.59.67-1.87-.15-6.63-2.32-7.53-.08,3.41-6,6.19-7.53,2.9-.13,1.1.65,1.28.58,2.32,3.5.59,6.11-2.75,8.11-1.74.77,2.75-8.29,2.81-4.05,3.47,1.48-.09,3.67-2.45,4.64-1.15-.84,1.68-2.64,2.39-4.64,2.89-.93,1.94,4.5-1.73,4.64-.57-.68,1.85-3.41,1.61-4.64,2.89,3,.64,5.29-2.4,6.37-1.73-.26,2-3.11,1.52-3.48,3.47m-5.79-9.85c-.92,1.63,5.9-1.18,4.06-2.32-1.17,1-2.15,2.1-4.06,2.32m204.58,22.6c-1.77-1.41.67-.36.59-1.16-.35-1.44-2.73-4.18-.59-4.63a17.26,17.26,0,0,0,2.9,5.22c-.1-3.4-3.38-6.66-1.74-9.86,1.48.84,1.13,3.52,2.9,4.06-1.43-4.55-5-12.53-8.11-11.6.06-1.44,1.08-1.79,0-2.9-1.88-.71-.44,1.88-2.32,1.17-.9-1.23-1-3.22-2.9-3.48-.22,2.38,3.58,3.73,1.74,5.8-1.41-3.44-6-6.21-6.38-6.38,5.1,7.08,8.7,18.73,13.91,23.76M148.33,312.45c1.82.68,1.4-.9,2.31-1.15.59,0,.7.47,1.16.58.18-1.53-1.2-1.5-2.32-1.74-.3.86-.85,1.46-1.15,2.31M135,317.1c-.06-.65.84-.91,0-1.16-3.17,2.82-9.27,5.79-9.86,9.27.87-.68,1.42-1.67,2.9-1.74.5.85.87,1.84,2.32,1.74,2.18-2.9,3.93-2.91,6.37-5.8.8,1.33-1.49,2.18,0,2.32.17-.52,1.57-2.54,1.74-1.16-.32.52-1.66,3.31-.58,1.74,2.47-3.34,7.09-7.59,7.54-11-.28,1-.62-.25-1.16-.58-.81,1.91-2.38,2-2.32.58a26.92,26.92,0,0,1-6.95,5.8m215.59-2.33c-1.92,1.73-2.51-1.83-3.47-.57,1,1.32,2.79,1.85,3.47,3.47-1.61,1.44-3.19-.66-4.06-1.73-.34,2.66,2.62,2,2.33,4.63-3,1.26-3-3.56-4.06-2.32.62,1.51,2.1,2.16,2.32,4.06-1.18,1.16-1.14-.25-2.32-.58,2.4,3.78,6.72-4.1,8.11-7-1.64-.49-5.53-4.21-4.63-3.47-.11,2,2,1.9,2.31,3.47M128,360.56c-2.33-.29-1.42,3.28-1.74,4.64-3.5,15.12-7,33.68-4.63,50.42,1.07-3.5.42-7,.57-10.43,1.83-39.18,13.27-70.1,31.3-93.31-3,.57-3.67,2-6.95,1.16-6.32,12.11-17.54,28.6-18.55,47.52m286.31-37.67c-3.77-3.19-8.19-5.72-11.59-9.27.6,7.83,5.28,14.28,11.59,15.65-3.25-.82-3.22-4.91-5.22-7,1.63,0,5.53,2.94,4.63,1.74-.06-1.1-1.91-.41-1.73-1.74.51.38,4,1.54,2.32.58m-80-8.69c.26,3.3-3.53,8.27-1.16,9.85,1.3-.24-.08-3.18,1.74-2.9.88,2,4.6,1.19,6.37,2.32.3,3.33-2.66,0-3.48,1.74,1.25.69,3.24.62,4.06,1.74a53.1,53.1,0,0,0,1.74-9.28c-3.56-.68-7.72-.77-9.27-3.47m35.93,6.37c-.58,0-.69-.46-1.16-.58,2.66,2-1.32,6-.58,3.48-1.28,4.34-1.15,11.63,2.9,15.07-.32,0-.66-.47,0-.58,1.76,1.53,2.3,4.27,4.05,5.8-1.09-4.43-3.53-7.17-3.47-11,1.23,3.47,6.57,11,2.9,3.47,1.44-.76,1.81,2.29,2.32.58-1-.74-3.21-3.32-2.32-4.05,1.4.17,2.56,3.56,3.47,2.32-.88-1.28-3.23-4.08-2.32-5.22,3.74,6.57,3.5,3.63,1.17-.58-2.11-3.81-7.21-11.13-7.54-12.17-.42,1.77,1,1.7.58,3.47M269.45,337.38a28.55,28.55,0,0,0-8.11-20.28c2.08,7.38,2.69,16.23,8.11,20.28M152.38,320c-.12.7-.64.36-1.16,0-1.45,4.93-7.63,8.2-7.53,12.76.87-.88,1-2.45,2.31-2.9a3.21,3.21,0,0,1-.57,2.31c2.38-.89,2.72-3.84,4.64-5.21-.27,2.84-3.8,5.46-2.32,8.12,1.11-3.34,4.69-7.29,4.05-10.44-.14.62-1,1.39-1.16.58.7-1.26,2.56-4.37,1.74-5.22m1.74,3.48c-1.6,3.42-3.59,6.45-4.64,10.43,3.43-.9,5.23-9.35,4.64-10.43M248,331c.36-2,1.83-5.87.58-7.53-2.4,5.51-2.46,13.38-4.64,19.13,3.52,0,5.3-6.5,7.54-4.06,1.13-6.16,3.14-12.16,1.74-18-.85,2.82-1,6.38-2.32,8.7-.31-4,1.78-7.56.58-9.28-2.15,2.31-.57,11.41-3.48,11m8.69,15.65c.49-4.35,2.15-7.52,3.48-11,1.67,3,2.18,7.09,4.64,9.27,1.34-12-4.45-16.8-8.12-23.76.34,9.23-5.76,19.3,0,25.5M174.41,327c-14.31,2.5-17.09,21.55-27.82,29.55,2.13-.38,4.4-.61,6.37-1.16a47.84,47.84,0,0,1-2.89,4.06c4.76-1.08,4.32-4.49,7-6.95,3.39-.49,7.74-3.07,7.54-5.22-3.32,2.48-6,5.58-12.18,5.22,2.75-2.28,3.72-6.32,6.38-8.69-.27,2.07-3.63,4.07-2.32,5.79,4.38-3.33,7.92-11.54,11.59-15.07-1.37,5-6.84,9-6.95,13.33,4.27-3.45,6.34-12.2,10.43-13.91-.81,1.73-3.72,4.37-2.9,5.79,1.62-2,3.48-3.85,5.22-5.79-.31.86-.86,1.46-1.16,2.32,3.7-1.52,5.06-5.37,7-8.69-2.6-.24-4.32-.77-5.21-.58m-23.19,33.61c2.85-.06,6-2.86,5.22-4.64-1.66,1.62-3.82,2.76-5.22,4.64m33-22.6c.68-1.53.72-2,1.74-.58,1.52-4.27,4.58-7,6.95-10.43-11.95-.56-17.44,8.44-19.12,16.22,1.11-.84,2.57-4.34,3.47-3.48-.89,1.65-3.32,4.77-2.89,5.8,3.13-1.9,10-3.11,9.85-6.37C183,340.59,181,341.26,179,342c-.32-2.49,2-7.19,4.06-6.94-1,.95-2.91,4-2.32,4.62,1.44-1.46,2.28-3.51,4.06-4.62.08,1.05-2,4.07-.58,2.89m-2.9,7c4.7-.71,9.68-4.22,9.86-7.53-1.85,3.95-6.85,4.74-9.86,7.53m-60.27-.58c-.56-1.08,1.73-1.93,0-2.32-2.28,5.85-7.08,12.24-5.22,20.29.41-2.49.95-4.85,2.32-6.38.22,2.19-1.68,5.25,0,7a1.6,1.6,0,0,1,1.15-1.74c.32.84-.67,3,.59,2.89-.16-1.31.13-2.17,1.16-2.31.09.87-.21,2.14.58,2.31a10.8,10.8,0,0,1,1.73-5.21c.81,1.67-1.58,2.95,0,3.48,2.14-7.92,6.28-16.9,7-24.34a86.54,86.54,0,0,0-7,8.69c-.53-2.34,2.71-6.2,1.16-5.79-1.16,1.15-1.69,2.94-3.47,3.47M131.52,360c1.86-.51.8,1.92,2.32,1.74-.2-2.9,1.35-4.05,1.16-7,2.07.35,1.94-1.95,3.47-3.47,0,3-1.7,6.86,1.16,8.11.67-6.28,2.87-11,4.64-16.23-2.47,1.16-1.8,1-2.9-1.16a24.36,24.36,0,0,1-2.32,2.9c0-2.3,2.67-5,1.74-6.37-1.26,2.37-1.6,1.2-1.74,0-3.32,6.33-6.27,13-7.53,21.44m136.2-20.86c0,1.69.21,3.26,2.32,2.89a19.7,19.7,0,0,1,1.16-3.47c-2.25.39-2.07,0-3.48.58m-17.39,7.53c-.35,0-.68-.08-.58-.58,1.25-2.21-1.16-1.18-.58-4.06-2.16-.39-4.26,2.27-3.48,2.9.75-1.44,3.25.17,3.48,1.16a4,4,0,0,1-1.16,1.74c-.39-2-1.92-.57-2.32.58,1.88-.34,2.7.39,4.06.58.32-2,3.67-3.06,1.16-4.64-.1.87.21,2.15-.58,2.32m.58-7.53c-.09,1.08-2,.35-2.32,1.16a2.64,2.64,0,0,0,.58,1.73c1.64.43,3.43-1.9,1.74-2.89m-84.62,5.21c3.7-.39,1.3,1,.58,2.32,2.71-.76,4.83-2.13,5.8-4.64-2.56.09-.16-1.63,0-2.32-3.09.59-4.4,2.95-6.38,4.64m-18.54,9.28c1.58-3.06,5.88-6.47,5.21-9.85-1.27,3.36-5.59,6.75-5.21,9.85m119.39-8.12c-.41,1.95,1.19,1.9,1.74,2.9.5-.85.45-2.24,2.32-1.74v-2.32H270c-.71,1.79-1.21,3.11-2.9,1.16m-94.47,2.9c1.72.15,2.86-2.29,3.47,0-2.08,1-3.75,2.42-5.79,3.48,5.88.66,8.86-4.65,9.85-7-1.16,2.14-8,1.67-7.53,3.48m-5.8,1.74c-.85,1.66-2.84,2.18-3.47,4.06,3.38-.86,5.67-2.84,8.11-4.64-1.72-2.07.3-2.54-.58-4.06-1.57,1.59-8.06,4.41-4.06,4.64m217.92-2.9c0,2.34,2.79,4.91,1.16,7-2.39-4.54-3.44-6.3-2.9-4.64,1.05,3.24,2.64,9.68,2.32,12.75-.69-.08-1.32-1-1.74,0,.65,1.31,1.72,5.19,1.16,5.8-1.12-.47-1.41-4.72-2.32-3.48,1.37,3.65,1.59,8.46,3.48,11.59.79-2.38-1.4-4.74,0-5.8-.38,1.73,1.9,5.69,1.16,4.06.34-1.2-.72-3.81.58-4.06.23,1.52.29,3.19,1.16,4.06.71-2.86-1.43-5.88-.58-7,1.34,1.16.59,4.43,2.89,4.63.82-2.77-1.46-5.44,0-6.95a5.41,5.41,0,0,0,1.74,4.05c.77-2.16-1.73-4,0-5.22,0,1.4,1.65,4.09,2.32,2.91-3.64-6.51-6-13-10.43-19.71m13.91,2.32c-.86-3.56-.11,2.38,0,2.9.73,3.41,3.28,10.32,4.06,12.75.19-3.3-2.1-7.16-.59-9.86.4,3.29,1,6.38,2.33,8.69.77-2.54-1.74-4.78,0-6.37.35,2.15,1.38,3.64,1.73,5.8.17-4.27-2.41-13.51-5.79-14.49-.1.87.2,2.14-.59,2.32.18-1.14-.78-1.15-1.15-1.74m-151.27,1.16v3.48c2.08.33,1.77-1.72,1.74-3.48-1.4.24-1.26-1.06-2.9-.58,0,1.08.45,1.22,1.16.58m20.29,3.48c1.1-.13,1.27.65,2.32.57v-4.63H268.3c.46,2-.87,2.23-.58,4.06m1.73,4.05c3.33-.55,6.36-4.44,5.22-7.53-.23,4-3.2,5.3-5.22,7.53m-110.69-4.05c2.5.18,3.84-.8,4.64-2.32-2.4-.08-3.33,1.32-4.64,2.32m92.15,4.05c-6.43,1-7.35-3.47-9.85-6.37-2.05,5.76,4.42,12.94,10.43,8.69-5.39,1.8-9.07-1.78-9.86-6.37,1.94,2.17,5.84,7.07,9.28,4.05m19.71,1.16c4.08.22,6.27-4.53,5.79-6.95-1.29,2.95-2.73,5.76-5.79,6.95m135.61-6.95c.1,1.64,1.06,2.41,1.16,4.05-.58,0-.69-.46-1.16-.58.71,3.54,1.3,7.21,2.9,9.86,1-4.83-.88-9.79-2.9-13.33M171.51,353c-.44,2.3-7.6,2-4.64,4.07-2.08.63-6.05,4-5.79,1.73a40,40,0,0,0-5.22,4.06c1.44.75,2.41-1.7,2.9,0a92.31,92.31,0,0,1-9.85,4.06c6.29.79,11.49-3.76,16.8-5.8-1.8-1.63-2.7,1.16-4.63,1.16.14-4.11,5.59-2.91,8.11-4.64a2.69,2.69,0,0,1-.58,1.74c2.79-.29,3.38-2.8,5.22-4.06a3.82,3.82,0,0,0-2.9.58c.17-.68,2.33-2.18.58-2.9m101.42,8.7c2.33-1,5.76-3.88,4.06-7,.2,3.51-4.67,5-4.06,7m-114.17-3.48c2.41-.68,5.62-.56,6.37-2.9a15.78,15.78,0,0,0-6.37,2.9m84.61,4.64c-1.77-2.29-3.31-4.81-5.21-7,.58,3.48,2.33,5.78,5.21,7m29,1.15c4.18,1.34,7.42-4,5.22-5.21-.8,2.68-2.94,4-5.22,5.21m-123.44-.57c3,.1,6.23.44,6.37-2.32-2.17.74-5.05.75-6.37,2.32m57.37,20.28c-.48,1.38.82,2.67.58.59-.45-7.16-2.21-12.5-2.31-21.45,1.69,0-.35-3.45,0-.58-1.8,7.26,1,14.75,1.73,21.44M358.71,362.3c-1.53-.81-6.63-1.07-8.12,0,3.41.77,6.89.55,8.12,0M250.91,364c-3.84,2.25-9.09.07-11-.57,2.09,2.62,8.41,3.18,11,.57M200.49,384.9c.84-.75,1.63-1.34,2.32,1.74.37-2.14-.76-5.77.57-6.95.76,2.53.34,6.23,2.32,7.53-1.28-8.37-1.67-17.64-5.21-23.76.18,5.2.19,10.23-2.32,12.75.46-2.68-.64-1.66-1.16-2.32.32-1.07,1.58-4.15.58-4.64-.47,3.22-3.34,7.08-2.32,9.85a2.56,2.56,0,0,1,1.16-2.31c-.41,1.91-.27,4.37-2.32,4.63.91-1.53.65-1.79-1.16-1.15.72-2.78,3.1-6.93,1.75-9.86.05,1.8-.27,3.22-1.17,4.06-.1-.86.21-2.14-.58-2.32-1,2.48-.79,6.17-2.31,8.12-1.48.3-2,.76-2.91-.58,2.11-3.35,3.27-9.28.58-12.75-1.09,4.5-.77,10.42-3.47,13.33.48-4.14,3.27-10.91,1.16-13.91-.74,6.92-2.41,9.55-5.22,13.91-.48-1.51,1.75-3.18,0-4.06-.73,2-1.24,4.16-2.32,5.8-.09-.69.11-1.65-.57-1.74-1,3.6-1.73,7.55-3.48,10.43,2.89-.78,3.47-3.87,7.53-3.48,1.18,13.52.65,31.57,0,43.47,2.45-16.75,2.28-29.46,1.74-46.95,1.09-.06.4-1.92,1.74-1.73,4.94-.12,9.77-.11,11.59,2.89-.08,18.38-.35,34.62.58,55.64,2.81-16.2-1-34.92,2.32-51.58,4.61-.55,7.52,3.67,9.85,3.48-2.91-2.89-7.34-4.25-11-6.38.67-1.64.8-3.83,2.32-4.64-1,1.51.24,1.76-.58,3.48m48.1-15.06c-.17-2.52,3.88-3.83,2.9-5.22a31.56,31.56,0,0,1-4.64,3.48,54.8,54.8,0,0,1-7.53-2.9c1.6,3,3.63,5.64,9.27,4.64m24.34-3.48c.69,1.62.94,3.69,3.48,3.48-.4-2.17,2.86-3.66,1.16-5.22-.4,1.73-2.31,1.94-4.64,1.74m49.84,16.22c-1.82-.13-1.93-5-2.89-4.05.39,4.05,3.51,8.45,2.89,11.59-2-4.39-1.72-7.52-4.63-11,.48,4.85,5,10.86,2.32,15.08-.64-6.52-2.12-12.19-5.8-15.65,1,7.3,3.5,16.2,3.48,22.61-2.61-9.37-3.58-20.38-8.12-27.83,3,9.91,3.71,22.18,9.28,29.56.28-8.12,10.89-10.14,17.38-7a17.62,17.62,0,0,0,1.75,5.8c.33-6.07,4.24-10.23,9.85-9.27-.36,3.64,2.83,3.73,2.31,7.53-.84-.78-4.59-1.19-4.63.58,1.66-.12,2.94.15,3.47,1.16-.8.74-.25,2.84-1.73,2.9-2.54-.49-1.63-4.78-4.06-2.32-.36-1.39.73-4.2-.58-4.63-3.54,11.35.66,23.64,0,37.09,8,2,10.79,9.29,16.23,13.9.11-10.49,2.23-21.89,1.15-30.13-2.71,1.12-4.31-2.2-4.05-5.8-1.56-2.24-3.73-6.54-2.32-9.85-.55-4-4.37-7.48-4.64-9.86,1.21.33,1.88,1.66,2.91.59,1.09-2.77-.45-5.58.57-7.54,1.9,3.87-.59,5.78.58,9.27,4.16-3.53,1.85-7.24,2.9-11.59,2.34-9.65,14-5.83,22-10.43.23-2-1-2.47-1.73-3.47,1.09,2-.33,2.54-1.17,4.05-.57-.77-.54-2.16-1.73-2.32a2.74,2.74,0,0,0,.57,1.74c-3-2.15-3.64-.71-6.37-1.74a2.56,2.56,0,0,1,1.16,2.32c-2.95-.6-3.58-.42-5.21,2.32-.44-2.27-3.46-2-4.64-3.47-.41,5-1.3,2.84-2.32,6.36-.6-1.35-1.92-5-2.9-4.05,1.91,1.92-.67.93-1.16,1.74,1.32,1.64-1,1.54-1.16,4a1.6,1.6,0,0,0-1.16-1.74c.65,2.6-1,2.52-1.73,4.64a2.59,2.59,0,0,0-1.16-2.32c.89,3.74,2.55,6.72,3.47,10.44-1.84-.47-3.56-6.61-3.47-5.22-.48,1.52,1.75,3.18,0,4.06-.32-3.54-1.91-3.22-2.9-5.22.72.13,1.18.91,1.16-.58-2,.26-1.86-5.08-4.06-6.37-.1.86.21,2.14-.58,2.31-.8-.73-.25-2.83-1.74-2.89.12,2.6,1.52,7,1.16,8.11-1.36-.57-.52-3.34-1.73-4.05-.37,1.57.73,4.6-.58,5.21-1.34-4.65-3.29-11.78-5.81-13.33,1.67,5.69,5.91,11.86,4.64,18.55-1-4.89-3.16-13.37-5.79-16.23,1.51,4.48,4.19,10.87,4.06,15.07-.66-.93-1.22-4.91-2.32-3.47.72,1.16,2.57,4.85.58,5.2-2.83-6.44-4.18-14.36-8.11-19.7-1.42,1.61.81,3.53-.58,4.64-2.17-2.68-3.72-9-5.8-9.85,2.35,4.33,2.76,10.27,3.47,14.48M115.29,389c2.82-1,1.38,3.47,4,4.05-.59-5.62,2.24-10.88.59-15.64.16,1.32-.14,2.18-1.16,2.32-.26-1.86-.82-2.84-1.74-1.16-.41-1.78-.41-1.11,0-2.9-2.11-.56-.48,2.61-2.32,2.32-.37-2.14.75-5.77-.57-7-2.24,5.57,0,12.4,1.15,18m29-13.33a4,4,0,0,0-1.74,1.16c-1.34,9.23-4.95,18.55-5.22,28.4-.34,13,2.81,26.12,5.8,38.83s4.35,25.69,7.53,38.25c.16-25.94-10.41-48.51-10.43-73,0-12,4.7-22.21,6.38-33.61Zm-8.11,18.55c.77-3.39,4.06-8.08,1.73-11,.09,1.45-.3,2.41-1.16,2.9-.44-2.28,1.08-9.55-1.15-8.11,1.16,5.14-5.32,13.47-2.32,18.54,1.24-1.27,1.59-3.43,2.9-4.63.55,1.08-1.74,1.93,0,2.32m-10.44,8.11a10.47,10.47,0,0,1,1.74-5.8c.34,1-.7,3.41.58,3.48,1-6,5.2-11.79,2.9-19.13-.1.88.21,2.14-.58,2.32-.67-1.46-.27-4-2.32-4.06-2.16,4-4.53,16.58-2.32,23.19m22.61-22.6c-.82,7.64-5.61,16.41-1.74,22,.84-2,.37-5.42,1.74-6.95.21,1.56-.53,7.05.58,5.79-.19-3.18,1.28-.95,1.73,0,.1-1.64-.5-4,1.16-4.06.09.69-.1,1.65.58,1.74.93-5.26,1.52.07,2.9-6.37,0,2.53-.21,5.24,1.16,6.37.06-2.05,1.06.06,1.74-1.74.33,1-.7,3.41.58,3.48.49-3.57,2.24-9,1.16-12.16-.09.67.1,1.64-.58,1.73-.33-1-.3-2.41-1.16-2.9-.26,2.56-.81-1.36-1.74,1.17.42-2.55-1.15.45-1.16-1.17.45-1.48.86-2.66-.58-3.48-.41,5.53-.48,0-2.32,5.8-.08-1.57,1.49-6.55,0-5.8-.07,2.66-.95,3.41-1.74,1.17a4.68,4.68,0,0,1-1.16,3.48c-.67-1.89,1.77-3.57,0-4.65.43.95-1.15,2.52-1.15,1.17,1-.26,1-4.38,0-4.64m38.24,28.4c5.26-5.93,8.89-6.79,8.7-14.49a1.61,1.61,0,0,1-1.74-1.16c.8-.79,2.73-3.4,1.17-4.63A1.6,1.6,0,0,1,193,389c.59-2.87-1.83-1.85-.58-4.06-1.39-.23-1.26,1.06-2.9.58-.45,3,.82,4.22.59,7a3.08,3.08,0,0,0-3.49,1.16c2.78,1.77-.8,4.8,0,5.8-.24-.94,2.17-1.95,2.32-.59-.81,3.31-2,3.51,1.17,1.74,1.51,2.93-4.6,5.13-3.49,7.54m220.82-6.95c2.06-1.63,3-7.17,2.9-13.92-.86-.3-1.46-.86-2.32-1.16-1.76,3.07-1.54,11.2-.58,15.08M397.54,404c1.73-3.1-2.26-8.54,0-12.17.57,6.5,1.34,14.16,4,16.81-1.22-6.31.1-15.17-2.89-19.71-.29,1.82,1.36,2.37-.58,2.9-.22-2.82-1.36-1.35-2.32-2.9-2,4.29-3.09,13.11,1.74,15.07M252.07,399.4c1-2.43,3.06-.68,4.05-3.49-.62-1.5-2.89-1.35-2.31-4.05-5.71-.69-8,2-11,4.05-.29,2.8,1,4,2.89,4.64,1.67-.9-1.2-2.7.58-3.47a2.57,2.57,0,0,0,1.16,2.32c-.12-1.67.15-2.95,1.16-3.49-.22,3.15,1,.67,1.74,0,.1.87-.21,2.15.58,2.32.19-1.35.6-2.5,1.74-2.9.51,1.73-1.81,3.54-.58,4.07m80-1.17c-2.15-.81-6.71-1.05-8.11.58,2.54-.84,6.65-.16,8.11-.58M133.26,404c-.1-.87.2-2.14-.58-2.32-.48,3.78-1.3,10.28,0,13.91,3.44-2.55,3.63-11.43,2.32-16.81a10.91,10.91,0,0,1-1.74,5.22m100.26-2.32c-2.73-1.62-3.42-1.67-7-2.31-.71,1.25-4.36,2.55-2.9,4.05,1.47-3.15,8.05-2,9.85-1.74m15.07,5.8c-.54-3-4.43-3.89-6.37-7-2,7.7-2.6,16.73-2.32,26.66,4.86.55,7.08,3.74,11,5.22,3.76-2,7.07-4.53,11-6.37-1.09-7.66-1.19-20.67-5.8-26.66-2.09,3.11-5.18,5.24-7.53,8.11m51-3.48c1.44.08,2.41-.3,2.9-1.16-2.05-.67-2.71-1.64-.58-2.32-4.93-.61-8-.69-10.43,1.16,3.61-.57,1,1.69,2.89,2.32-1,.32-2.4.3-2.89,1.16,2.18.22,5.23-1.68,6.95,0-2.39-.46-3,.89-5.21.58a2.81,2.81,0,0,1-.58,1.74c1.14-.17,1.15.78,1.73,1.16,3.18-1.07,7.76-.75,10.44-2.32-4.12-.27-2.05-.78-5.22-2.32m34.78-2.32c-2.82-2.44-9-1.68-12.17,1.16,4-.94,9.36-2.2,12.17-1.16M219.62,410.4c5.3-6.24,14.63-4.7,16.8,3.48,1-12.15-14.51-13.85-16.8-3.48m48.1-3.47c1.52-2.15,5.21-2.13,7.53-3.48-3.45-.15-7.91,1.73-7.53,3.48m69-.58c-3.55-4.67-14.75-3.36-16.8,1.74,3.9-3.18,12.9-3.29,16.8-1.74m-64.33-.58c-.47,1.3-4.86,1.65-3.47,2.9,1.91-1.77,4.73-2.61,8.69-2.32,1.89.35-3-1.27-5.22-.58M186,414.46c1.76-3.26,5.94-4.1,8.11-6.95-1.36-.76-1.29.29-2.32-1.16-2.31,1.94-6.61,5-5.79,8.11m83.45-2.31c3.85-2.36,9.33-1.55,12.76,0a6.27,6.27,0,0,1-2.9-3.48c-3.31-.47-8.11-1.54-9.86,0-4.63,4.09,1.59-.94,4.06.57-3.08,1.46-10.73,7-4.06,2.91m-2.89,5.79c1.13-3.9,7-6.15,9.27-6.95-5.49-.79-9.65,5.7-9.27,6.95M339,413.3c-2.53-4.94-10.21-7.13-16.81-4.63-.64,1.7-3.22,4.47-2.32,5.79,4.24-5.38,15.69-5.23,19.13-1.16m-193.58.58c-.12-1.1.39-5.72-.58-4.06-.3,2.52.17,3.59-.58,4.64-1-.07-.19-4.74-1.16-2.9.22,5.58,1.34,10.25,1.16,16.23,2.46.72,1.55-1.93,2.9-2.31a22.72,22.72,0,0,0,7,11c.09-2.24-.45-5.09,1.16-5.8-.06,1.79.26,3.21,1.16,4.06-.16-5.26.59-11.41-1.16-15.07-.14,4-1.63-2.14-2.32,1.74,0-2.17-.24-4-1.16-5.22-.09.87.21,2.14-.58,2.32-1.07-.89,0-6.93-1.15-5.8-.1.87.2,2.15-.59,2.32-1-2.52-1.63-5.18-2.31-6.37-.6,1.72,0,4.63-1.74,5.21m62-5.21c-.11-.86-1.4-.53-2.31-.58-1.25,2.13,2.94,2.61,2.31.58m14.49,3.48a5.57,5.57,0,0,1,4.64-2.33c3.32,1.13,5.32,3.57,7.53,5.8,0-7.7-11.46-9.89-12.17-3.47m82.3,13.91c3.83-1.65,3.14-1.45,0-1.75,2.19-.74.79-1.48,2.9-2.31-.69-.09-1.65.09-1.74-.58,1.33-.6,3.08-.79,2.89-2.9-2.23-.74-2.67.1-5.21-.58,1.81-2.26-1.89-.11-1.74-1.16,3.54-1,4.49-1.41,6.37-3.48-1.52-1.56-6.62.45-8.11-1.15,1.37-1.15,5.19.16,6.38-1.16-1.85-.26-2.84-.82-1.16-1.75-3.59-.91-10.08-.66-12.17,1.75h4.05c-1.58,1.59.85.54,1.16,1.73-1.72,0-3.53-.05-3.48,1.74.87.1,2.14-.2,2.32.58-1.95,1-1.51,1.06-1.73,4.06,2.66.18,6.26-1.26,3.47,1.16,2.6.82,5-1.57,6.38,0-2.47.81-5.29,1.28-7.53,2.32a3.25,3.25,0,0,1-.59,2.32c2.43-.09,1.4.29.59,1.16,2.16-.05,4,.24,5.21,1.15a10.74,10.74,0,0,0-5.21,1.75c1.53,0,3.41-.33,3.47,1.15-4.15.83-1.66,1.07,0,1.16a27.2,27.2,0,0,0-2.9,2.31c.17-1.89,4.18,1.75,1.74,1.17,5,1.18,9.58-2,12.75-5.22-1.51-.48-3.18,1.75-4.06,0,0-1,1.61-.33,1.74-1.16-1.43-.75-2.81,1.29-2.89,0,1.05-.81,1.3-1.64.57-2.31.1.94-3.57.94-3.47,0m-117.66-8.7c1.76-2.7,8.33-3.64,8.13-6.37-3.62,1.39-6.83,1.05-8.13,6.37m43.48-4.06c-1.49-1.41-4.59-1.21-7.54-1.15.34,2.12-4,2.88-1.16,4.05,1.09-2.73,6.69-2.88,8.7-2.9m84,3.48c1.08,1.16,0-4.29-1.16-4.63-.15,2.08,1.07,2.79,1.16,4.63m5.22,1.16c4-3.15,12.65-5.15,18-3.48-5.06-4.46-15.83-1.84-18,3.48m-94.47-1.74c5.71-1.26,8.11,3.86,11,3.48-2.27-2-7.19-6.81-11-3.48m-33,3.48c2.9,1.1,3.08-3.83,1.16-4.06-1.17,2.11-4.71,1.86-6.38,3.48a10.8,10.8,0,0,1,4.65.58c1.34-.85-1.13-1.84,1.15-1.74a2.69,2.69,0,0,1-.58,1.74M321,423.74c1-1.38,2-5.68,3.47-4.64-1.37,2.3-4.18,6.24-2.89,9.27,1.77-6.18,5.57-13.31,13.91-11-4.24-3.07-17-1.31-14.49,6.38m-101.42.57c.62-2.85,3.26-3.68,4-6.37-3.55-.45-4.43,4.81-4,6.37m16.22-1.15c-2.61-2.6-4.42-6-10.43-5.22,3.29,1.54,8.33,4.41,10.43,5.22m49.84,0c-5.72-5-15-6.17-19.12.58,4.66-4.36,15.1-2.47,19.12-.58m-147.21,9.27c-.75-3.89-.53-8.73-2.31-11.6-.56,6.47-4,12.63,0,18,3.18-1.93-.84-7.95,1.15-10.43.33,1.08.48,5.26,1.16,4.06M186.57,422c.69.08,1.65-.1,1.74.58-.62,1.3-2.84,1-3.47,2.32,4,.05,5.9,2.2,9.86,2.31.86-4.14-2.51-2.75-1.17-5.79-3,.12-7-1-7,.58M288,430.69c-1.55-4.63-6.51-8.93-12.17-7.53,6.09.47,8.46,4.67,12.17,7.53m-15.65-5.79c4.37.06.58-1-1.73-.59-.51.9-3.65,2.09-2.32,2.9.93-1.19,2.79-1.46,4.05-2.31m63.18,36.51c1.52-10.87,7.56-25.12,2.9-36.51,0,3.9.11,7.84-1.17,10.43.12-4-.88-6.84-1.73-9.85-1.33,5.33,0,10.25-1.74,14.48-.37-2.14.74-5.77-.58-6.95-1,1.32.22,4.86-1.74,5.21v-4.64c-2.28-.92-.2,2.51-1.74,2.33-1.56-1.07-1.06-2.23-2.32-3.48.3.3-.19,1.92-.58,1.74-2-1-.21-3.84-1.73-7-1.42,3.61.34,10.4-1.16,13.92-1.48-2.59.39-8.51-1.17-11-2.88,10.82,1.59,25.81,6.38,30.72-.54-.5-1.94-3-.58-3.48,2,.89,1.61,4.18,3.48,5.21.73-4.72,1-.61,1.74-.57.21-3.61-.3-7.54,1.74-7.55-1,1-1,6,0,7m-67.81-30.14c4.42-6.52,15-3.53,19.12,1.16-2.28-7.93-17.82-8.46-19.12-1.16m-59.12-4.64c-1.67-.88-1.81,0-4-.57-.75,4.17,4.22,4.11,4,.57M185.42,429v1.73c2.44,2.19,5,4.31,8.69,5.22.25-5.16-5.52-7.12-8.69-7m63.17,8.68c-2.81-1.06-3.77-3.95-8.11-3.47,1.6,2.39,6.59,3.4,5.21,7,5.66-3.63,13-8.63,16.23-12.76-4.71,2.83-8.56,6.51-13.33,9.27m-7.53,10.43c1.86-.86,3.81-4.66,5.21-4.05-.69,1.26-3.75,3.17-2.32,4.63,2.32-2.81,4.49-6,7.54-8.69,4-3.51,10.56-5.16,11.59-9.85-5.67,3.23-11.51,9.35-16.23,11.59.33,0,.66-.47,0-.57-1.41,2.45-6.62,4.17-5.79,6.94m37.09-18.54c2.76,1.15-1.9-1.31-3.48-1.16-2,1.68-7.71,2.7-5.79,6.38a12.9,12.9,0,0,1,9.27-5.22m-28.4,5.22c-3.24-2.17-6.53-4.29-11-5.22,1.21,3.81,8.71,4.42,11,5.22m56.8,1.74c1,9.24,3.26,22.23,6.95,30.71-1.5-10.09-3-20.15-4.05-30.71,2.41.28,2.55-1.7,5.21-1.16,2.36,11.73,4.59,23.61,9.28,33-1.17-12.23-4.36-23.67-6.38-35.35-5.56-.69-8.24,3.13-11,3.48M194.7,438.8c-3.6-1.24-5.42-4.24-9.86-4.63,2.1,2.35,7.17,4.79,9.86,4.63m47.52,15.64c5.89-8,15.13-12.68,21.44-20.27-8.55,5-18.13,12-21.44,20.27m-38.84-18.53c.15,2,1.24,3,3.48,2.89,1.14-1.08.18-2.12,0-3.47-1.43-.08-2.79-.09-3.48.58m81.72,32.45c-2.63-7.36-4.75-17.66-7-24.92-.48-1.57.94-5.1-2.32-4.64-.29,9.79,6.13,20.83,6.95,30.72-4.12-8.81-6.08-19.8-9.85-29-1.14.4.15,3.23-1.15,3.48A10.36,10.36,0,0,0,270,441.7c-1.88,10.77,2.11,24.12,6.95,31.87.33-2.28-2.22-4.69-.58-6.37,1.31,4.68,3,8.95,4.64,13.33.35-1.57-.74-4.6.58-5.22a11.91,11.91,0,0,0,1.15,5.8c.1-.87-.2-2.14.58-2.32.88.71.15,6,1.16,4.64.43-4.19,1.17-6.16,1.74-11,.18,2.34.39,7.7,1.16,7.53-.41-5.78,1.43-1.38,1.74-1.16.11-2.78.28-5.51,1.16-7.53.61,4.86-2.15,9.42-.58,13.33,3.18-10.18,5.51-27.33,0-36.52-.33,1,.7,3.41-.58,3.48-3.23-2.57-3.31-8.28-5.8-11.59-.2,4.85,2.95,9.41,1.74,13.33-3.88-5.58-1.36-13.84-6.37-18,.87,11.88,6.91,21.67,6.37,33m-40.56-27.82c0-2.72-4.81-3.68-5.8-3.48,2.26.83,2.22,4,5.8,3.48M357,449.81a42.67,42.67,0,0,0-12.75-12.17c2.7,4.88,10.55,10.66,12.75,12.17m-164.6-5.21c-.68-.17-2.19-2.33-2.9-.58.35.87,2.93,2.41,1.75,2.9-1.15.18-1.16-.78-1.75-1.17-.15,1.7,1.31,1.79,1.17,3.48-1,.23-1.49-.85-1.75,0,.87.49.85,1.87,1.17,2.9-1,.23-1.49-.86-1.75,0,.88,1.66,2.5,5.59,1.75,6.95-.92,0-.46-1.47-1.75-1.15,1.68,5.28,2.1,14.91,1.75,20.28-5.13-10.1-2.28-30.84-3.49-40-2.39,1.57.16,1.57-2.89,0-.1,22.91,1.58,44,6.38,62,2-10.72,4.79-23.34,4.05-35.93-.57-9.67.76-20.46-.58-22.61-1,.35.05,2.75-1.16,2.9m111.28-5.8c-1.25-.25-5.5,1.45-7,2.9-.3,3.79.46,7.85,1.16,11.59.66,3.46,1,8.43,2.9,9.27A51.25,51.25,0,0,1,298.43,451c-.21-3.16-1.74-9.87,2.9-9.84,3.16,8.43,4.28,22,9.28,26.65-3.57-8-3.5-24.61-7-29m-8.11,8.7a18.2,18.2,0,0,0-2.9-8.7c.78,3.09,1.15,6.58,2.9,8.7M357,451.55a131.13,131.13,0,0,1-13.33-10.42c1.54,6,8,10.15,13.33,10.42m-93.31-1.74a62.8,62.8,0,0,0-6.37-6.37c0,.35-.09.68-.59.58-.35,0-.68.08-.58.58,2.18,1.7,5.74,5.07,7.54,5.21m-12.17,0c-1.1-.24-1.05-1.66-2.9-1.16-.08,3.32-4.53,4.29-5.79,8.12-1.21,3.63.9,15.36,1.15,18.54.33,4-1.36,8.36-1.15,11,1,13-1.35,28.59,2.89,40.57,1.07-12.29-2.86-25,1.16-35.94-1.3-11.2-3-21.1-.58-34.19.8.35.1,2.23,1.16,2.31.61-2.09-1.31-6.72,1.16-6.95-.66.73-1.16,4.57,0,5.22.32-1,.3-2.41,1.16-2.91,1,.56,1.17,1.93,2.32,2.33.37-2.33-.75-6.17.58-7.54,4,1.25,6.62,6.8,11,5.8-2.53-4-5.82-7.31-11-8.7a13,13,0,0,0-1.16,3.48m-114.76-2.89c2.31,8.12,4.08,16.79,7.54,23.76-.87-8-2-19.95-7.54-23.76M208,463.72c-4.59-2.18-7.92-5.6-11.59-8.69,3.06,7,9.49,15.47,19.13,12.17v-4.64c-9.44-1.38-14.23-10.49-18.55-15.06,1.43,7.64,6,12.14,11,16.22m150.11-7.53c1.08-.56,1.94,1.74,2.31,0-1.2-.33-1.22-.9-.57-1.75-6.64-.69-10.75-3.93-14.49-7.52,3,5.88,8.3,12.55,14.49,13.33-1.5-.47-4.48-2.44-3.48-3.48,3.77,2.44,2.52,1.4,1.74-.58m-131.56,2.32c-1.12.05,1,2.26-1.16,2.32a56,56,0,0,0-1.16-12.76c-.34,2.29-1.74,3.53,0,3.48-2.67,1,.3,7.64-2.32,8.7-.23-2.09-.15-4.49-1.74-5.22.4,5.93.34,19.93,4.06,23.18-.15-.13.24-1.4.58-1.16.37,2.14.59,4.43,1.74,5.8.31-.85-.68-3,.58-2.9,0,5.13.2.62,1.16.58.14,0,2.09,4.54,2.31,4.06-.41-10.65,6.49-24.65,3.48-35.94-.81,2.09-.6,5.2-1.74,7-.35-1.39.73-4.2-.58-4.64-1.05,1.55-.45,8.65-2.89,5.22-.71,1-.11,3.37-1.17,4.06-1.27-.64-.51-3-1.15-1.74M153,468.94c.34-1-.7-3.41.58-3.48v5.8c4.64-1.79,2.84-15.49-.58-13.33-1.72-2.53-1.43-7.06-5.21-7.53,2.4,5.51,1.27,14.56,5.21,18.54m162.86-15.65c.4-1.94-1-2.12-2.32-2.32-.27,1.82.51,2.59,2.32,2.32m38.25,7c-4-1.83-5.61-6-8.69-8.7.62,4.79,4.87,9,8.69,8.7m-99.1-.58c-.32.17-1.13-1.25-1.16-1.16-2.27,5.74,5.05,17.16,5.21,22.6-1.28,5.54-1.78,11.8.58,17.39-.33,1.59-1.44,2.42-1.74,4.06,6.15,12.77-4,30.8,1.16,46.94C264,522,264.37,493,263.08,459.08c-2.16,1-.92-.33-2.9-.57s-.33,3.14-1.74,3.48c.45-3.54-.72-5.46-2.32-7-.8.36-.08,2.23-1.15,2.32.12-2.44.21-4.84-1.74-5.22-.16,2.83-1,5,0,6.38.32-1,.3-2.41,1.16-2.9-.28,1.83,1,2,.58,4.06m-45.79,9.27c-5.84-.84-8.31-6.37-12.75-7.53,2.83,3.55,7.19,8.64,12.75,7.53m139.1-5.8c2.73,20.64,6.81,39.95,13.91,56.22-.3-16.16,1.8-39.1-2.32-53.32-1.2,9.24.19,21.06-2.9,28.4-1.27-9.21-2-12.85-1.74-19.7-.13.44,0,1.14-.58,1.15-.5-5.34.16-9-1.16-11-.58.78-.55,2.16-1.74,2.32-.81-1.67,1.59-2.95,0-3.48-.58,1.79-.95-1.25-1.74-1.16-.32,1.21-.9,1.23-1.73.58M205.7,529.21a210.9,210.9,0,0,0-4-41.72c1.5-6.55-.48-18.5-5.22-23.77,2.56,27.47,4.15,44.64,9.27,65.49m100.85-60.27c-.49-2.22-1.07-4.35-3.48-4.63-1.1,1.81.59,5,3.48,4.63m9.27-1.74c1.58-.42,1.17,1.15,2.32,1.16.8-.75.57-2.52.58-4.05H316.4a3.75,3.75,0,0,0-.58,2.89m3.48,3.48c5.21-.34-5.37-1.43-8.12-1.16,0-.35-.08-.69-.57-.58-1.48,2.78-6.82,1.69-8.12,4.63,5.11-1.44,9.56-3.57,16.81-2.89m-107.8.58a253,253,0,0,0-3.48,53.9c6.19-14.29,4.76-36.2,7-54.48-.75,0-.8-.74-1.74-.58.07,1-.58,1.36-1.74,1.16m-5.22,20.28c-.47-7.94,2.36-15.53-1.73-20.28.39,6.95-.35,15,1.73,20.28M308.87,473c.76,0,9.9.65,12.75,0-3.61-.55-9.27-1.13-12.75,0m1.74,4.64c-1.87,1.23-4,2.16-5.8,3.48,2.64,18.67,3,42.55,4.64,60.27,5-14.52,13.53-25.48,16.8-41.73-5.66-1.92-.23-9.88,1.16-12.16-1.67-2.59-2.06-6.44-2.9-9.86-3.44-.35-5.16,1-8.69.58-.4,9.27.93,20.25-2.32,26.66-.08-4.24,2.74-22.68,0-26.08-.26,6.5.75,14.28-1.74,18.54-1.05-1.93-1.27-3.18,0-5.21-1-.23-1.48.86-1.74,0,.43-2.13,2.57-2.88,1.16-4.06-.58.49-.12-1.66-1.73-1.16.65-1.27,1.93-1.92,2.31-3.47-1-.35-2.41,1.7-2.89,0,1.45.1,1.81-.89,2.31-1.74-1.09-.13-1.28.66-2.31.58.18-1.4,3.56-2.57,2.31-3.48-1,1.86-3.82,2-5.21,3.48.17-2.33,7-3.6,4.64-4.64M206.28,500.81c-.27-2.07.61-8.3-.58-7.53.27,2.07-.6,8.31.58,7.53m111.86,26.67c-3.18,7.44-9,15.35-9.27,23.76,3.57-6.69,8.7-17.93,9.27-23.76m-71.87,15.64c.45-5.89.11-10.06-1.73-12.75.26,4.57-.67,10.33,1.73,12.75" transform="translate(-96.36 -63.24)"/><path class="cls-3" d="M401,222c-.91,2-3.1,2.71-5.22,3.48,1.86-.67,3.36-4.73,5.22-3.48" transform="translate(-96.36 -63.24)"/><path class="cls-3" d="M281.05,235.38c-9.36,13.1-16.36,38.83-3.48,55.05-1.3,1.45-2.12-2.48-3.48-2.89,1,5.46,7.12,9.14,11,13.9s7.22,10.27,8.12,16.23c-3.38-3.82-5.72-8.65-9.28-13.33-5.59-7.33-14.29-11.6-16.22-21.44-3.79-19.28,2.73-36.69,13.33-47.52m-10.44,46.36c.79,3.32,1.85,4.4,2.9,6.37,1.22-1.83-2.55-6.15-2.9-6.37" transform="translate(-96.36 -63.24)"/><path class="cls-3" d="M194.11,291.59c-1-.51.6-3.78-1.16-1.16-1.57-.52.59-2,.58-2.89-.86-1.91-.68,1.93-2.31,1.16-.28-1.83.82-2.27,1.15-3.48-2.4,1.25-1.5-.53-.58-1.74-.2-.82-1-.05-1.15.58-1.63-1.11.79-3,.58-4.63a9.63,9.63,0,0,0-1.75,2.31c.8-12.12-5.63-12.55-5.79-26.08-2.22-1.5-2.56-9.24-3.48-13.91-.2-.81-1-.05-1.16.58-1.73-1.59.78-3.83,0-6.37q9,27.18,19.13,53.31c-2.84-1.11-2.77.64-4.06,2.32" transform="translate(-96.36 -63.24)"/><path class="cls-3" d="M308.87,251.61c-.77,1.66-3.68,1.18-5.22.57,0,1.73,2.73.74,3.48,1.74-1.91,1.69-5.29-.1-6.95-.57,1.51,1.76,4,2.52,7.52,2.31-.89,3.43-6.32.91-8.11,0,.12-2.78.89-4.9,1.16-7.53,2.69,1.16,4.14,3.58,8.12,3.48" transform="translate(-96.36 -63.24)"/><path class="cls-3" d="M238.74,248.71c5.12,6.18,1.71,15.55,1.74,23.18s3.83,14-.58,19.12V280.58c-3.56,10.94-4.36,24.62-11,32.46,0,0-.58-.05-.58,0,2.09-9.81,8-20,9.27-34.2.34-3.87-.39-8.48,0-12.75.46-5,2.91-10.82,1.16-17.38" transform="translate(-96.36 -63.24)"/><path class="cls-3" d="M369.14,278.26c-1.59,2.77,4.33,3,4.64,5.8-1.67,1.37-4-.26-4.64-1.74-.74.22.74,3.08,2.32,2.9-2.17,1.18-4.56-2.39-5.22-4.64a14.47,14.47,0,0,0,2.9-4.06c1.31,2.37,4.05,3.3,6.37,4.64-2.4,1.61-5.78-.77-6.37-2.9" transform="translate(-96.36 -63.24)"/><path class="cls-3" d="M228.31,295.07c-1.16,5.43-4.13,14-6.38,20.28-1.52-2.13,1.19-5,1.16-7.53-1.5-1.65-2,2.58-4.05,2.32,3.2-4.91,6.56-9.67,9.27-15.07" transform="translate(-96.36 -63.24)"/><path class="cls-3" d="M173.25,301.44c-1.5,2.37-2.95,4.79-5.8,5.81,2.09,1.09,5.36-1.58,6.38-3.48,1.08,2.89-4.27,6.58-8.12,4.63,2.8-1.66-1.65-.37-1.15-2.9,3.56,1.23,6.24-2.34,8.69-4.06" transform="translate(-96.36 -63.24)"/><path class="cls-3" d="M294.38,336.22c-.92,1.6-3.32,1.71-2.9,4.63,1.18-.74,1-2.8,3.48-2.31a10,10,0,0,0-2.32,5.79c1.65-1.05,2.22-3.18,3.48-4.64.66,1.28-1.6,4.57-1.74,7,2-.34,1.43-3.21,2.89-4.06,1.29,1.33-1.46,3.53-.58,6.38.86-.49.84-1.87,1.16-2.9,1.67,1.14-.2,3.62,0,5.22,2.2,1.52,3.29,8.51,4.06,13.33-5.48-9.06-9.56-18.46-16.23-26.66-4.48-5.51-10.1-10.92-10.43-19.71,1.7.16,1.78-1.31,3.48-1.15,1.22,1.2-.77,2.17-1.74,2.89.47,1.4,2.39-1.82,3.48,0-1,1.12-2.6,1.66-3.48,2.9,1.08,0,2.66,1.23,3.48.58,1.37.16-.67,1.55-.58,2.31s1,.06,1.16-.57c1.37.16-.67,1.55-.58,2.32.14,1.49,1-.8,2.31,0-.5.46-.34,1.58-1.15,1.74.25.86.74-.24,1.73,0,.16.93-.54,1-.58,1.73.51,1.72.87-1.34,2.32-.58a3.31,3.31,0,0,0-.58,2.33,2.77,2.77,0,0,1,1.74-.59c-.11.47-.58.58-.58,1.16,1,.08,1.22-.7,2.32-.57-.33,1.21-1.43,1.65-1.16,3.47.89-1.24,2.48-1.78,3.48-2.9,1.05.18-.58,2.44-1.16,2.9.25.86.74-.23,1.74,0-.32,1-.3,2.41-1.16,2.9,1.37,1.15,2.3-3.08,4.64-2.9" transform="translate(-96.36 -63.24)"/><path class="cls-3" d="M213.82,340.86c4.26,1.14,6,4.84,7,9.27,1.58-3.14-1.35-6.76-2.9-8.69,3.23-.32,8.63,10.13,4.64,13.32,1.39-2.36-2.27-3.84-1.16-2.31-2-2-4.33-8.8-7.53-11.59" transform="translate(-96.36 -63.24)"/><path class="cls-3" d="M319.3,341.44c1-1.91,2.35.68,2.9,1.16-.81.93-2,.24-2.9-1.16" transform="translate(-96.36 -63.24)"/><path class="cls-3" d="M193,375.63c1.45-.8-.42,3.89-.58,5.21-1.68-1.35,1.09-3.11.58-5.21" transform="translate(-96.36 -63.24)"/><path class="cls-3" d="M221.93,384.32c5.26-4.52,16.76-1.28,15.65,8.12-1.76,0-5.15-1.37-5.8-.58-1.75-1.86,1.65-.67,2.9-.58-1.59-3.11-6.65-4.3-11-2.9,1.2,1.2,4.43-.4,6.38,1.16-2.74,1.31-7.76.78-10.43,3.47.57-10.61,1.69-20.71,10.43-23.17,3.57,2.41,3.44,8.52,4.63,13.32-2.68-3.26-11.9-4.58-12.75,1.16m4.06-9.27c2.11-1.1,3.61.79,5.22-.58a2.89,2.89,0,0,1-1.74-1.73c-1.8.13-2.26,1.6-3.48,2.31m4.06,2.9H226c-.9.84-2.71.77-3.48,1.74,2-1.75,10.28,0,7.54-1.74m-7.54,9.86c4.34-5.64,11.1-.51,13.91,3.47-.06-6.18-13.36-9.77-13.91-3.47" transform="translate(-96.36 -63.24)"/><path class="cls-3" d="M306,385.48c1.14,1.37,1.36,3.65,1.74,5.8-.6.38-1.7-3.69-1.74-5.8" transform="translate(-96.36 -63.24)"/><path class="cls-3" d="M328.57,387.22c1.5.44-.42,4.29,1.74,4.06-1.4,1.42-2.72-2.8-1.74-4.06" transform="translate(-96.36 -63.24)"/><path class="cls-3" d="M223.09,394.18c-1.52.8-2,2.64-4.05,2.9a5.21,5.21,0,0,1,4.05-2.9" transform="translate(-96.36 -63.24)"/><path class="cls-3" d="M299,265.52c-.74,1.53,2.95,3.59,6.38,2.89-1.37,2.55-6.42.3-8.7-1.16.4-3.08,1.43-5.53,1.74-8.69,2.66,1,4.32,3,8.7,2.32-.73,1.59-3.13,1.5-5.22,1.74.93,1,2.61,1.25,4.64,1.15-1.42,2.52-6.74.62-8.12-.57.82,2.65,4.05,2.91,7.54,2.89-.81,2.17-6.63,1.38-7-.57" transform="translate(-96.36 -63.24)"/><path class="cls-3" d="M330.89,266.67c-.18.79-1.45.48-2.32.58.49.86,1.87.84,2.9,1.16-1.65,1.79-4.19-.41-5.8-.58.32-.84-.68-3,.58-2.9,1.83.3,2.55,1.71,4.64,1.74" transform="translate(-96.36 -63.24)"/></g><g class="cls-2"><path d="M108.45,564.42s.92-2.76,7-2.3c0,0,9.81,2,11.34,0,0,0-2.29,2.81-.14,3.51,0,0,7,1.38,6.13,3.22,0,0,.3,1.15-3.68,0,0,0,3.75,4.38,2.22,5.76,0,0-3.07,1.21-2.45,3.74,0,0-1.46,4.37-3.92,4.61,0,0,2.76-7.28.92-11.43,0,0-6.74-.88-7.35-3,0,0-3.68-4.84-7.36,0,0,0-4,7.87-.61,9,0,0,0,5.76-2.15,5.76,0,0,1.53,3.92,0,11.29h1.84s-3.37,5.75-1.84,8.52c0,0,4,3.41,3.68,6,0,0,3.75,0,5-2.08a41,41,0,0,1,5.67,1.52s10.42,1.38,9.19-5.76c0,0,1.91-3.32-2.38-4.93,0,0,.61-5.07-2.14-3.69,0,0-5.2-2.06-8.27,1.85,0,0-2.45-.69-4,.46,0,0-2.75,2.07-.91,4.83l-2.15,2.08s-1.23-9.45,1.53-11.52a3.94,3.94,0,0,1,5.21-.23s4.91-2.53,5.83-3c0,0,6-.23,7.59,3.91l1.61-3.22s1.14,4.61,1.76,7.14c0,0-1.53,10,0,12.07,0,0,.86.87,1.46.83,0,0-3.91,1.3-3.91,2,0,0,.38.88-4.22,2,0,0-7.05-2.3-12,0,0,0-5.1-1.38-9,1.15,0,0,2.24-4.6-1.44-4.6,0,0-3.37,1.88-3.37-.65l-3.37-.89s5.13-2.16,1.75-1.7c0,0-2.14-2.63,1.84-2.17l-.92-10.82S94,588.61,97,585.61c0,0,3.37,6.17,6.13,5.16,0,0-.62-7.46,1.22-8.84,0,0-3.37-1.15-2.14-5.07,0,0,1.22-5.53.92-6.91,0,0,0-3.68,4.29-3.45,0,0-.41-.64,1-2.08" transform="translate(-96.36 -63.24)"/><path d="M170.06,598.89s-1.05-8.2-3.15-10.37c0,0,3.15-1.38,3.41-3.75,0,0,2.63-3.94,2.89-6.11,0,0-5,4.14-3.94,5.13l-3.41,1s-.26-2.95-1.83-3.55c0,0-1.84-2.36-.53-3.94a2,2,0,0,0-2.62,0s-1.58-6.9-1.58-7.49a2.59,2.59,0,0,0-1.57-2s.78-6.31-2.36-7.1c0,0-5.25,0-4.46,5.13,0,0-2.89,6.7-2.1,9.46,0,0-2.63-2-2.63,1.38a13.51,13.51,0,0,1-.78,8.87S142,582,143.3,581c0,0-2.63,1.58-5.25-2.17v-1.58s-2.1,1.78,0,4.34c0,0,.52,5.32,2.62,5.71,0,0,4.46,2.77,2.36,5.13,0,0-1.57,4.54-1.31,6.11,0,0,.27,2.49-.78,3.68l1.31,11.63s.78,1.85,1.31-1.9c0,0,3.15-6.19,1.57-9.93,0,0,2.89.39,2.37-5.72,0,0,1.83-.39,2.1,2,0,0,1.57-.12,0-2.09l-.27-3.42a7.1,7.1,0,0,1,2.1,4.21,5.74,5.74,0,0,1,4.2,5.87s3.67-1.77,4.72-5.12c0,0,1.05-6.35,3.15-4.77,0,0,1.57,7.72,3.15,8.52,0,0,2.36,1.37.52,4.53,0,0,2.89,10.41,4.46,10.8,0,0-1-10.05,0-10.84v-5.12s1.06-2.17,1.58-3.55c0,0-1.84,2-3.15,1.57m-10-10.14c-1.84.6-2.62,6.51-2.62,6.51l-2.31-1.78-1.37-11.23c1.05-2.76-2.1-1-2.1-1-.78,0,2.1-3.75,2.1-3.75-1.57-.39,0-2.36,0-2.36,2-1,5.25,4.14,5.25,4.14l-2.1,1.58c4.46,3.94,3.15,7.88,3.15,7.88" transform="translate(-96.36 -63.24)"/><path d="M173.76,569.41a3.51,3.51,0,0,0-2.09-2.76c-2.1-1.19-1-2-1-2s4.89-1.27,8.3,1.93a6.07,6.07,0,0,1,3.67-2.45,17.25,17.25,0,0,1-2.1,9.4s.79,6.9-.26,8.08c0,0,2.36,3.94,1.31,7.49,0,0,2.89-3,2.36,0,0,0-1.71,8.09.07,9.27a3.51,3.51,0,0,0,2,3.35c2.3,1.38,0,.79,0,.79a4.55,4.55,0,0,1,1,2.56s1.8-1.77,6.78-2c0,0,3.15-4.34,5-4.73,0,0,1.57,2.56-1.58,4.53,0,0,6-3,6.3-2,0,0,.79,3.31-3.67,3.9,0,0-2.63,2.57-3.68.4,0,0-4.2,2-4.2,3.55,0,0-2.62-3.71-3.93-.16a2.15,2.15,0,0,1-1.63,3.19,3.94,3.94,0,0,0-.79,2.33s-3.41-5.45-3.67-7c0,0-3.41-5.91-1.84-8.87,0,0-3.41-6.24-2.36-8.24,0,0-3.67-3.12.53-3.65a10.15,10.15,0,0,0-1.32-5.26s-2.88-3.55-.78-3.35c0,0-2.37-2.17-.79-3.35,0,0,1.57-1.38-1.58-2.17,0,0,1.58-2.76,0-2.76" transform="translate(-96.36 -63.24)"/><path d="M200,570.72s0-1.58-2.1-2.76-1-2-1-2,4.89-1.27,8.3,1.92a6.07,6.07,0,0,1,3.68-2.45,17.36,17.36,0,0,1-2.1,9.4s.78,6.9-.27,8.08c0,0,2.37,3.95,1.32,7.49,0,0,2.88-2.95,2.36,0,0,0-1.71,8.09.06,9.27a3.51,3.51,0,0,0,2,3.35c2.29,1.38,0,.79,0,.79a4.59,4.59,0,0,1,1,2.56s1.8-1.77,6.79-2c0,0,3.14-4.33,5-4.73,0,0,1.58,2.56-1.57,4.53,0,0,6-3,6.29-2,0,0,.79,3.31-3.67,3.9,0,0-2.62,2.57-3.67.4,0,0-4.2,2-4.2,3.55,0,0-2.62-3.71-3.94-.16,0,0,1.26,2.4-1.63,3.19a4,4,0,0,0-.78,2.33s-3.41-5.45-3.68-7c0,0-3.41-5.91-1.83-8.87,0,0-3.42-6.24-2.37-8.24,0,0-3.67-3.12.53-3.65a10.19,10.19,0,0,0-1.31-5.26s-2.89-3.55-.79-3.35c0,0-2.36-2.17-.79-3.35,0,0,1.58-1.38-1.57-2.17,0,0,1.57-2.76,0-2.76" transform="translate(-96.36 -63.24)"/><path d="M229.84,572.92s-3.21-2.72,2.56-2.13c0,0,6.88,3.88,9.77,2.24,0,0,5.77-3.16,7.87-2.3,0,0,6,2.22,7.61-.3,0,0,3.68-.83,6,0,0,0,6.56,0,3.93,1.9,0,0-2.62,4.09-5,4.8,0,0-2.83.33-3.36-.85,0,0-2.94-.57-2.42.9,0,0-4.72-2.09-7.08-1.1l2.36,2.17s-13.22-2.62-14-1.12c0,0-1.57,2.69.26,3.48,0,0-1.05,5.67-1.83,8.3,0,0,6.65.29,8.22-.83,0,0,2.56-.65,3.51,0,0,0,3.32-2,3,.5a6.78,6.78,0,0,0,5.25,0s3.41-1.5,3.41,2.18c0,0,.26,1.88-3.67,1.78,0,0-8.4,2.08-9.71,0,0,0-2.36-2.39-2.36.92,0,0-5.35.63-6.13,0,0,0-2.36,3.52,3.41,5.49,0,0-4.72.2-4.72,2,0,0-.26,3.35,1.31,3.94,0,0-2.63,1.62-.53,3.59,0,0,19-.39,20-3.75s7.87-6.11,7.35-9.66c0,0,2.62-1.61-.26,4.5,0,0-.53,3.94-3.15,4.54l-.53,3.27s.27,2-7.61,3.94l1.05,1.58s-7.61-1.15-9.44-.55c0,0-6,.59-7.09-.6a15.62,15.62,0,0,1-3.41,2s-2.89,2-2.89,2.56c0,0,1.32-6-.52-6.15,0,0,2.89-12.54,1.31-16.29,0,0-2.36.2-2.1,1,0,0-2.1-3-5.25-2.48a11.44,11.44,0,0,0,2.18-5.08,17.27,17.27,0,0,0,4.12.85s-2.89-2.16-.26-3.94c0,0,1.84-7.69.26-9.46Z" transform="translate(-96.36 -63.24)"/><path d="M298.49,603.46a85.93,85.93,0,0,1,1.58-9.2l-3.15,3c.26-4.83-2.62-6.11-2.62-6.11,2.1-1.25-3.15-4.67-3.15-4.67,6-.79,6.61-5.45,6.61-5.45,4.2.07,3.41-1.65,3.41-1.65,2.63-1-.52-6.53-.52-6.53-2.1.49-3-1.81-3-1.81l2.63-1c-1.32-.89-5.51-.88-5.51-.88-4.2-1.18-9.71.88-9.71.88-.53-1.09,2.36-3.44,2.36-3.44-2.63,0-7.61,3.44-7.61,3.44-4.2-1.09-6.73,4.64-6.73,4.64-2.38,2.68,0,2.69,0,2.69L269.24,593c-4.63,1,0,3.45,0,3.45,2.46,7.59,0,11.34,0,11.34,1.93,1.38,1.92,2.38,1.92,2.38-.88,10.05,2.18,11.86,2.18,11.86,1.84-7.09,1.48-9.51,1.48-9.51-.52-1,1.84-7.1,1.84-7.1-3.41,1.38-2.1-2.36-2.1-2.36-3.67,1.58,0-2.56,0-2.56-1.31-1.38.26-5.91.26-5.91,1.84-.1,8.4-5.9,8.4-5.9l3.24,1.83c7.42,3,6.15,10.77,6.15,10.77a5.54,5.54,0,0,0,.32,3.9c4.72.2.79,2.37.79,2.37-2.1,1.39-2.42,5.92-2.42,5.92,1.05,3.35-1.52,9.07-1.52,9.07,1.57-.79,5-8.87,5-8.87,1.57-4.73,2.88.47,2.88.47,1.31-1,.79-8.09.79-8.09.52-1.57,3.72,1.58,3.72,1.58,1-.59-3.67-4.19-3.67-4.19M288.6,586l.06,0c-.16-.3-.57-1-1.54-2.55a25.21,25.21,0,0,1-10.46,4.34s.91-6,1-6.74a3.55,3.55,0,0,1,2.89-3.23s0-1.18-2.89,0a9.6,9.6,0,0,0,1.44-4.14s6.43-1.38,10.63-.39l3.94,1.18s.26-2.88,2.62-1.54c0,0,1.87,10.48-7.68,13.07.23.42-.06,0-.06,0" transform="translate(-96.36 -63.24)"/><path d="M309.35,562.09s1.85.72,1,5.08c0,0-1.9,6.4.44,6.67,0,0,.71-2.81,3.11-.06a5,5,0,0,0,2.37,2s-3.06.36-1.44,3c0,0,3.72,8.23,3.84,12.11,0,0,4.32-7.77,6.63-7.81,0,0,1.21-4-.38-5.5,0,0,2.35,1.2,2.63,2,0,0-2.37-2-.18-5.5,0,0,.6,2.7,2.66,3a4.36,4.36,0,0,1-.14-4.34s1.15-5,5.06-2.1a7.65,7.65,0,0,0-.5-9.5s5.82,5.48,3.69,11c0,0-7.07,4.87-3.29,4,0,0,2.06,1.66-2.43,5.31,0,0-4.58,1.17-4.35,8.47a10,10,0,0,1-3.62,7.05s-4.88,2.62-3.36,10c0,0-.16,10.37-3.31,16,0,0,2.89-12.92-1.42-11.29,0,0-2.06,2.22.36,3.1,0,0-3.9-.69-1.76-5.69,0,0,1.46-1.85,0-6.17,0,0-4.44-3.51-3.53-7.09a8.12,8.12,0,0,0,3.13,2.75s2.54-1.84-1.49-5.8c0,0-9.05-5.08-8.91-7.53,0,0,3.62,2.76,6.7,2.86,0,0-7.29-5.49-5.6-8.63,0,0,2.36,4.53,4.68,5,0,0-1.38-5.78-3.5-8.07,0,0-2.66-2.87.34-5.27,0,0,1.58-2.2,2.57-8.92" transform="translate(-96.36 -63.24)"/><path class="cls-4" d="M378.26,605q-.09,0-2.82-4.64-2.64-4.37-2.64-2.09c0,1.27-.49,1.15-1.45-.36-.31-.55-.64-1.22-1-2a5.05,5.05,0,0,1-.4-.81c-.16-.37-.31-.72-.46-1l-.5-1.09a9.32,9.32,0,0,0-.59-1.09c-.21-.33-.42-.67-.64-1a3.8,3.8,0,0,0-.63-.78,3.64,3.64,0,0,0-.68-.45,1.4,1.4,0,0,0-.78-.14,1.36,1.36,0,0,0-.77.41c-.49.37-.65.72-.5,1s.5.41,1.05.23,1,.16,1.4,1.22a5.89,5.89,0,0,1,.32,3.14,5.69,5.69,0,0,1-1.82,2.82,3.83,3.83,0,0,0-1.18,1.45,8.1,8.1,0,0,0-.45,2.64c-.18,2.06-.43,3.22-.73,3.46s-.55.72-.55,1.63a4.86,4.86,0,0,1-.81,2.64,10.85,10.85,0,0,0-1.19,4.55q-.27,3.36-.72,3.54c-.37.25-1-.13-1.87-1.13A9.08,9.08,0,0,1,356,614c-.43-1.46-.46-2.24-.09-2.37s.6-1,.73-2.72a10.46,10.46,0,0,1,.45-3.64,1.93,1.93,0,0,0-.45-2,7.38,7.38,0,0,1-.82-2.73,22.35,22.35,0,0,1-.37-4c0-1.25.15-1.87.46-1.87s.57.22.82.64c.24.73.75.7,1.54-.09a2.83,2.83,0,0,0,.91-1.73,6.6,6.6,0,0,0-1-3.64q-.27-.63-.54-1.41a9.47,9.47,0,0,1-.41-1.45,6.65,6.65,0,0,1-.14-1.27,2.78,2.78,0,0,1,.14-1c.09-.24.22-.36.41-.36.36,0,.54.36.54,1.09s.27,1.09.82,1.09a.64.64,0,0,0,.73-.55,12.64,12.64,0,0,0-.09-2.45,10.25,10.25,0,0,1-.09-2.36c.06-.43.24-.64.54-.64s.52-.2.64-.59a4.53,4.53,0,0,0,.13-1.5c0-.61-.09-1.22-.18-1.82s-.18-1.15-.27-1.64-.2-.75-.32-.82c-.36-.48-.54-1.87-.54-4.18v-3.36l2.27-.37c1.51-.18,2.36-.48,2.54-.91.67-1,1.22-.69,1.64,1a16.88,16.88,0,0,1,.09,5.28q-.45,2.82.18,3.27c.37.18.55,1,.55,2.46a4.83,4.83,0,0,0,.18,1.81c.12.19.42.22.91.1s.79-.19.91,0a3.71,3.71,0,0,1,.18,1.54c0,1.27.18,2,.55,2.18a4.9,4.9,0,0,1,1.09,1.73c.18.55.38.87.59,1s.53,0,1-.23.87-.21,1.14.09a16.14,16.14,0,0,1,1.5,2.64q1.45,3.27,1.86,3.27c.28,0,.41-.91.41-2.73s.28-2.73.82-2.73c.24,0,.5-.28.78-.86a10.68,10.68,0,0,0,.68-1.91,5.42,5.42,0,0,1,.45-1.32,11.38,11.38,0,0,0,.73-3.45c.3-2.06.79-3.34,1.45-3.82a3.8,3.8,0,0,0,1-2,15.45,15.45,0,0,0,.46-2.91c.06-1,.15-1.84.27-2.59s.28-1.14.46-1.14.48,1,.72,3.09a46.32,46.32,0,0,0,1.46,6.73,18.42,18.42,0,0,1,.77,3.68,18.64,18.64,0,0,1-.5,3.87,19.81,19.81,0,0,1-1.36,4.45,16.18,16.18,0,0,0-1.32,3.64,17.94,17.94,0,0,0-.86,4.09c0,.85.27,1.27.81,1.27s.73.55.55,1.64-.15,1.64.27,1.64.55-.42.73-1.09.55-1.09.91-1.09.39.28.45.86a7.48,7.48,0,0,1-.13,2.09,12.23,12.23,0,0,1-.68,2.32,11.42,11.42,0,0,0-.82,4.55,14.86,14.86,0,0,1-.46,4,13.74,13.74,0,0,1-2.23,3.54c-1.12,1.4-1.88,2.09-2.27,2.09s-.5-2.42-.32-7.27q.36-9.09-.63-7c-.06.18-.16.42-.28.73-.18.72-.42,1.09-.72,1.09" transform="translate(-96.36 -63.24)"/><path class="cls-4" d="M390.26,565.49c1.09-1.09,2.15-.75,3.18,1a5.36,5.36,0,0,0,3.27,2.28c1.34.3,2.22.53,2.64.68a2,2,0,0,1,.86.5,1.38,1.38,0,0,1,.23.91c0,.73.49,1.21,1.46,1.45a10.35,10.35,0,0,1,3.18,1.28c.85.54,1.27,1.06,1.27,1.54s1,1.52,3,2.73a13.87,13.87,0,0,0,5.1,2.09c1.57.18,2.3.49,2.18.91-.12.18-.49.27-1.09.27s-1.09.19-1.09.55c0,.91,1.81,1.73,5.45,2.45a20.41,20.41,0,0,1,4.27,1.19c.37.36.06.66-.9.91a29.92,29.92,0,0,1-5.82.27,37.39,37.39,0,0,1-5.14-.5,17.08,17.08,0,0,1-3.87-1.5,11.58,11.58,0,0,1-5-3.91c-1-1.4-1.76-2.09-2.36-2.09s-1.61-.85-2.82-2.55a9.89,9.89,0,0,0-.95-1.14,7.85,7.85,0,0,0-.82-.72c-.22-.15-.35-.2-.41-.14-.31.3-.28,1.7.09,4.18.36,3.1.33,4.55-.09,4.37-.12-.06-.24-.28-.37-.64a1,1,0,0,0-.5-.68.36.36,0,0,0-.5.14.93.93,0,0,0,0,.81c.06.37.28,1.34.64,2.91a4.83,4.83,0,0,1,0,1.73.66.66,0,0,1-.69.37c-1,0-1,.72,0,2.18a12,12,0,0,0,1.64,2,10.18,10.18,0,0,0,4.82,2.27,13.38,13.38,0,0,1,2.5.73c.33.18.41.52.23,1-.25.67.06,1.15.91,1.45a4.4,4.4,0,0,1,2,1.41.93.93,0,0,1-.22,1.37,2.56,2.56,0,0,1-2.19.27,8.28,8.28,0,0,1-3-1.41c-1.39-1-2-1.24-1.91-.82a3.53,3.53,0,0,0,.91,1.18c.85.91,1.15,1.46.91,1.64s-.79-.06-1.82-.73a9.82,9.82,0,0,1-2.36-2,2.11,2.11,0,0,0-1.55-.82.51.51,0,0,0-.54.46,6.26,6.26,0,0,0,.09,1.73q.36,2.26-.27,3c-.43.54-.34,1.24.27,2.09.73,1,.82,1.61.27,1.73a1.37,1.37,0,0,1-.82-.37c-.3-.24-.5-.32-.59-.22a1.84,1.84,0,0,0-.13,1,2.13,2.13,0,0,0,.81,1.91,1.29,1.29,0,0,1,.46.91,5.51,5.51,0,0,1-.46,1.64,18.29,18.29,0,0,0-1.09,4.82q-.36,2.82.09,2.91a1.93,1.93,0,0,0,.64-.19c.67-.18,1-.12,1.14.19s-.17.57-.78.81a6.39,6.39,0,0,1-2.86.32,3.73,3.73,0,0,1-2.23-.68,2,2,0,0,1-.09-2.09,13.16,13.16,0,0,0,.68-4.41c0-1.85-.16-2.78-.59-2.78s-.51-1.39-.63-4.18-.19-5.64-.19-8.55,0-4.57.09-5c.19-.66.44-1,.78-1s.5.38.5,1.05.18,1.09.54,1.09.49-2.31.19-6.92q-.37-7.26-.28-11.45a31.59,31.59,0,0,0-.45-6.64q-.46-1.9.09-2.55" transform="translate(-96.36 -63.24)"/><path class="cls-4" d="M438.54,567.4q4.45-2,4.46-.36v.18c-.06.43,0,.67.18.73a3.43,3.43,0,0,0,1.27-.09,2.73,2.73,0,0,1,1.37-.14q.27.13.27.87a3.21,3.21,0,0,1-1.45,2.27,4,4,0,0,1-1.87.95,16.69,16.69,0,0,1-3.23,0,18.66,18.66,0,0,0-3-.09,1.85,1.85,0,0,0-1.27.63,7,7,0,0,1-2.64,1.64l-1.82.82.46,3.09a21.81,21.81,0,0,0,.59,4c.21.63.56.95,1.05.95s.59.33.68,1a11.28,11.28,0,0,1-.09,2.77,26.57,26.57,0,0,1-.87,4c-.72,2.43-.85,3.76-.36,4s.82,2.36,1,6.18q0,.29.27,3c.18,1.82.3,3.38.37,4.69s.12,2.77.18,4.41a17.53,17.53,0,0,1-.18,3.82c-.19.91-.46,1.36-.82,1.36s-.55-.57-.37-1.73c.12-1.33-.09-2-.63-2a2,2,0,0,0-.73.73c-.06.18-.18.47-.36.86a7.66,7.66,0,0,1-.46.87c-.79,1.57-1.3,1.12-1.54-1.37a18.41,18.41,0,0,1-.1-2.09,26.44,26.44,0,0,0-.27-3.59c-.12-.57-.36-.86-.73-.86a.55.55,0,0,1-.63-.46,7.67,7.67,0,0,1,.09-1.91,106,106,0,0,0,1-17.55q-.09-11-1.27-13.18a1.27,1.27,0,0,0-1.28-.59,11.51,11.51,0,0,0-3,.86,1.45,1.45,0,0,1-1.63-.36c-.43-.55-1.61-.73-3.55-.55s-2.91.12-2.91-.18.36-.67,1.09-.91,1.18-.42,1.18-.73c-.06-.54-.72-.69-2-.45s-1.91.12-1.91-.36a2.5,2.5,0,0,1,1.09-1c.73-.37,2.1-.28,4.1.27s3,.57,3.27.27,0-.64-.55-.82c-1.27-.54-1.24-.85.1-.91a14,14,0,0,1,2.27,0,12.43,12.43,0,0,0,2.77,0,1.72,1.72,0,0,0,1.14-1c.48-.78.86-1.15,1.14-1.09s.37.55.31,1.46c-.12.72-.07,1.13.14,1.22A7.33,7.33,0,0,0,431,571a11.32,11.32,0,0,0,2.68-.41c.33-.15.38-.5.14-1s.05-.73.72-.73a23.26,23.26,0,0,0,4-1.37" transform="translate(-96.36 -63.24)"/></g></g></g></g></g></svg>